<svg width="512" height="512" viewBox="0 0 512 512" fill="none" xmlns="http://www.w3.org/2000/svg">
    <path fill-rule="evenodd" clip-rule="evenodd" d="M112 15H396V16L403 17L407 21H409V23L412 25L413 30H414V113L417 114L422 120H424L444 140V142L449 146V148L454 152V154L460 160L462 165L465 167L466 171L468 172V174L472 178L474 184L476 185V187H477V189H478V191H479V193H480V195H481V197H482V199H483V201H484V203L487 207V210L490 214L491 220L493 222V225H494L497 237H498V241H499V244H500L501 253H502V257H503V262H504L506 283H507V296H508L507 336H506V344H505L503 362H502L499 378H498V381H497V385H496L493 397L491 399L490 405L487 409V412H486V414H485V416H484V418H483V420H482L476 434L474 435L472 441L468 445L465 452L462 454V456L460 457V459L457 461V463L454 466H456L458 464H461L463 462L469 461L471 459H474L476 457L482 456L484 454L490 453V452L495 451L497 449H506L512 455V463L508 468H506L504 470H501V471H498L496 473H493L491 475L485 476L483 478L477 479V480L472 481L470 483L464 484L462 486L456 487V488L451 489L449 491L443 492L441 494L431 496V497L426 496L425 494H423V492L421 491V488H420V481H419V474H418V467H417V459H416V452H415V445H414V438H413V431H412V423H411V416H410V407L415 401H418V400H423V401H425L429 404L430 409H431V415H432V423H433L436 451L438 453L439 450L443 447V445L447 441V439L449 438V436L451 435V433L453 432V430H454L455 426L457 425L460 417L462 416V414L464 412V409H465V407L468 403V400L471 396V393H472V390L474 388V385H475V382H476V379H477V375H478V372H479L481 360H482V355H483V350H484V343H485V335H486V324H487L486 283H485V275H484L482 259H481L479 247H478V244H477V240H476L473 228L471 226V223L469 221V218L466 214V211H465L460 199L458 198L456 192L454 191L453 187L451 186V184L449 183V181L447 180V178L445 177L443 172L436 165V163L432 160V158L423 150V148L417 142L414 141V218H413L411 224L402 231H398V232H298V231L294 230L291 226V222H290L291 217L294 213H296L298 211H394V36H114V211H214V212H216L220 215V217L222 219V224H221L220 228L217 231H214V232H109V231H106V230L102 229L96 223V221L94 219V216H93V141L73 161V163L69 166V168L66 170V172L63 174V176L61 177V179L59 180L57 185L55 186L54 190L52 191L50 197L48 198V200H47V202H46V204H45V206H44V208L41 212V215L38 219V222H37L35 230L33 232L31 242H30V245H29V249H28V252H27L25 266H24V272H23V279H22L20 311H21V331H22V340H23L24 353H25V358H26L29 374H30V377H31L32 384L34 386L36 395H37V397L39 399V402H40V404H41V406L43 408V411H44L46 417L48 418V420H49L51 426L53 427L54 431L56 432L57 436L59 437L61 442L64 444L66 449L73 456V458L80 464V466L83 468L84 473H85L83 481L79 484H76V485L69 484L60 475V473L55 469V467L51 464L49 459L46 457V455L44 454V452L42 451L40 446L38 445L37 441L35 440L34 436L32 435L28 425L26 424V421H25V419H24L21 411H20V408H19L18 403L16 401V398H15V395L13 393L10 380H9V376H8V372H7L6 364H5V359H4V354H3L1 331H0V287H1V278H2L4 259H5L6 250H7L8 242H9V239H10V235H11L14 223L16 221V218L18 216V213L20 211V208H21V206H22V204H23V202H24L29 190H30L32 184L34 183L35 179L37 178L38 174L40 173V171L42 170V168L44 167L46 162L49 160V158L52 156V154L55 152V150L60 146V144L70 135V133L78 125H80L88 116H90L93 113V32H94V28H95L96 24L101 19H103V18H105L107 16H112V15Z" fill="var(--icon-color)"/>
    <path fill-rule="evenodd" clip-rule="evenodd" d="M257 69L264 71L268 76V157H291V158H294L298 162L299 170H298V173L294 177H291V178H255V177H252L249 174L248 169H247V78H248V75L250 74V72H252L253 70H257V69Z" fill="var(--icon-color)"/>
    <path fill-rule="evenodd" clip-rule="evenodd" d="M324 69L331 71L334 74V77H335V157H358V158H361L364 161L365 165H366V170H365L364 174L362 176L358 177V178H322V177H319L315 173V170H314V77H315V75L318 71L324 70V69Z" fill="var(--icon-color)"/>
    <path d="M194 71L199 77L200 83L202 85V88H203V91L205 93L206 99H207L208 104L210 106L211 112L213 114L214 120L216 122L217 128L219 130L220 136H221L223 144L225 146L226 152H227L228 157L230 159V162H231V165H232V170H231V173L225 178L216 177L212 173L208 162H165L161 174L159 176L155 177V178H149V177L145 176L142 172V163H143L144 158L146 156L147 150L149 148L150 142H151L152 137L154 135L155 129L157 127L158 121H159L160 116L162 114V111H163V108L165 106L166 100H167L168 95L170 93V90H171V87L173 85L174 79L180 71L186 70V69L194 71ZM184 115H183L182 120H181L180 125H179V128L177 130L176 136L174 138V141H200V139L198 137V134H197V131L195 129L194 123L192 121L191 115L189 113L188 107H186L184 115Z" fill="var(--icon-color)"/>
    <path fill-rule="evenodd" clip-rule="evenodd" d="M253 211H259V212L263 213L266 217V226L263 230H261L259 232H253V231L249 230L246 226V217L249 213H251L253 211Z" fill="var(--icon-color)"/>
</svg>
