<svg width="512" height="512" viewBox="0 0 512 512" fill="none" xmlns="http://www.w3.org/2000/svg">
<path d="M418 83H424V84L429 85L430 87H432L439 94V96H440V98L443 102V105H444V109H445V113H446V119H447L446 159H445V166H444L442 183H441L440 192H439L437 204H436L435 211H434V216H435V218H436V220H437V222H438V224L441 228L442 233H450V232L466 233V234L475 235L480 240V247H479L478 250H476L474 252L465 251V250L449 249V253H450V257H451V261H452V266H453V272H454L455 301L467 306L468 308H470L471 310H473L475 312L476 319H475L474 323L471 324V325H464V324L460 323L459 321L452 318V322H451L448 334H447L444 342L442 343L441 347L437 351V353L431 359V361L411 381H409L406 385H404L402 388H400L399 390H397L393 394L389 395L388 397L382 399L381 401H379V402H377V403H375L371 406H368V407H366L364 409H361L359 411H356L354 413H351V414H348V415H345V416H342V417H339V418H335V419H332V420L315 423V424H309V425L298 426V427H290V428H281V429H266V430H245V429H231V428L214 427V426H208V425L188 422V421L180 420V419H177V418H173V417L158 413V412L153 411L151 409H148L144 406H141V405L131 401L130 399L124 397L123 395L119 394L118 392H116L115 390L110 388L108 385H106L103 381H101L82 362V360L78 357V355L75 353V351L71 347L70 343L68 342V340H67V338H66V336L64 334V331L62 329V325H61V322H60V318L53 321L52 323H50L48 325L39 324L37 319H36V315H37V312L39 310H41L45 306L57 301L58 272H59V266H60V261H61L63 249L47 250V251L38 252V251L34 250L33 247H32V239L37 235L46 234V233H58V232L70 233L71 228H72V226H73V224H74V222H75V220L78 216V211H77V207H76L73 192H72V187H71L69 172H68V166H67V159H66L65 119H66L67 108H68L69 102H70L73 94L80 87H82L83 85L88 84V83H94V82L108 83V84L116 85V86L122 87L124 89H127V90H129V91H131V92L145 98L146 100L150 101L151 103L155 104L156 106H158L159 108H161L162 110H164L165 112L170 114L172 117H174L176 120H178L181 123H184V122H187L189 120H192V119L204 116V115H208V114H211V113H216V112L231 110V109H238V108H274V109H281V110H287V111L301 113V114L308 115V116L323 120L325 122L331 123L334 120H336L338 117L343 115L345 112H347L348 110H350L351 108L356 106L357 104L361 103L362 101L366 100L367 98H369V97H371V96H373V95H375V94H377V93H379V92H381L383 90H386V89H388L390 87L400 85V84H404V83H410V82H418V83ZM410 100H405V101H401V102H398L396 104H393V105H391V106H389V107L375 113L374 115L370 116L369 118L365 119L364 121H362L361 123H359L358 125L353 127L351 130L346 132L344 135H342L341 137L336 138V139L328 140V139H323V138H320V137H317V136L306 133V165H305L304 170L301 171V172H293L289 167V128L282 127V126H276V125H264V198L260 202H252L248 198V125H236V126H230V127L223 128V167L219 172H211V171L208 170L207 165H206V133L195 136V137H192V138H189V139H184V140L176 139V138H173L170 135H168L166 132L161 130L159 127H157L156 125H154L153 123H151L147 119L143 118L142 116L138 115L137 113H135V112H133V111L121 106V105H119V104H116L114 102L107 101V100L94 99V100H91L86 105V108H85L84 114H83V119H82V131H81L82 151H83L85 172H86L87 182H88V186H89V190H90V194H91L94 210H95L94 221H93V223H92V225H91V227L88 231L87 236L93 237V238H96V239H100V240H103L105 242L111 243V244H113L117 247H120V248L128 251L129 253L135 255L139 259H141L144 262V265H145L144 271L141 274L134 275V274L128 272L127 270L123 269L122 267H120V266H118V265H116V264H114L110 261H107L105 259H102L100 257L94 256V255H91V254H88V253L80 252V255H79V258H78L76 272H75V280H74V295L82 294V293H88V292H97V291H118V292L126 293L128 298H129V302H128L127 306L124 307V308H121V309L120 308H98V309H89V310H83V311L76 312V317H77L79 326H80L84 336L86 337L88 342L91 344V346L94 348V350L112 368H114L116 371H118L120 374H122L123 376H125L129 380L133 381L134 383H136V384H138V385H140V386H142V387H144V388H146V389H148L152 392H155L159 395H162V396H165L167 398L177 400V401H180V402H183V403H187V404H191V405H195V406H200V407H205V408H210V409L223 410V411L245 412V413H267V412L289 411V410H296V409H302V408L317 406V405L329 403V402L339 400V399L345 398L347 396L353 395L355 393H358V392H360V391H362V390H364V389L378 383L379 381L383 380L384 378H386L387 376L392 374L399 367H401L418 350V348L424 342V340L426 339L427 335L429 334V332H430V330L433 326V323H434V320H435V317H436V312L429 311V310H423V309H414V308H392L391 309V308H388L384 305L383 298H384L386 293L394 292V291H415V292H424V293H430V294L438 295L437 272H436V267H435V262H434L432 252L424 253V254L412 257L410 259H407L405 261H402V262L390 267L389 269L385 270L384 272H382L378 275L371 274L368 271L367 265H368V262L371 259H373L377 255L383 253L384 251H386V250H388L392 247H395V246H397L401 243L407 242L409 240L425 236L424 231H423V229H422V227H421V225L418 221L417 210H418V206H419V202H420V198H421L424 182H425L426 172H427L429 151H430L431 132H430V119H429L428 110H427L425 104L421 100L410 99V100Z" fill="var(--icon-color)"/>
<path fill-rule="evenodd" clip-rule="evenodd" d="M167 205L178 206V207L182 208L183 210H185L188 213V215L190 216L191 221H192V225H193L192 235H191L189 241L184 246H182L181 248H178V249H175V250H165V249H162V248L158 247L157 245H155L153 243V241L151 240V238L149 236V233H148V222H149V219H150L151 215L157 209H159L160 207L167 206V205Z" fill="var(--icon-color)"/>
<path fill-rule="evenodd" clip-rule="evenodd" d="M338 205H345V206L352 207L353 209H355L361 215V217L363 219V222H364V233H363V236H362L361 240L359 241V243L357 245H355L354 247H352L350 249H347V250H337V249L331 248L330 246H328L323 241V239L320 235L319 225H320V221H321L322 216L324 215V213L327 210H329L330 208H332L334 206H338V205Z" fill="var(--icon-color)"/>
<path fill-rule="evenodd" clip-rule="evenodd" d="M228 253L236 254L238 256V258L240 259V261L242 262V264L245 266V268L255 278H257L267 268V266L270 264V262L272 261V259L274 258V256L276 254H278V253L286 254L289 257V260H290L289 266L287 267V269L285 270L283 275L279 278V280L271 288L286 291L289 294V297H290L289 303L286 306L278 307V306H272V305L262 303L258 300H254L250 303L240 305V306H234V307L226 306L223 303V300H222L223 294L228 290H234V289L241 288L233 280V278L229 275V273L227 272V270L223 266V263H222L223 257L228 253Z" fill="var(--icon-color)"/>
</svg>
