<svg width="512" height="512" viewBox="0 0 512 512" fill="none" xmlns="http://www.w3.org/2000/svg">
<path d="M128 107H133V108L139 109V110H141L145 113H148L151 116L161 120L162 122H164V123L168 124L169 126L175 128L176 130L184 133L185 135H188L192 138L199 139V140H201V139L223 138V137H237V136H264V137H278V138L303 140V139H307L309 137H312V136L320 133L321 131L329 128L330 126L334 125L335 123L343 120L344 118H346V117H348V116H350V115H352V114H354V113H356V112H358L360 110H363V109H366V108H369V107H373V106H382V107L392 108V109H395V110L401 112L405 116H407L411 120V122L414 124V126H415V128L418 132V135H419V138H420V143H421V204H420V210H419L418 218H417L414 226L410 229H404V230L407 232V234L409 235L411 241L413 242V245H414V247L416 249V252H417V255H418L420 270H421L422 296L433 299V300H436V301H439V302H442V303H445V304L450 305L452 307H455L457 309H460V310L472 315L473 317H475L477 319V321L479 322V325H480L479 338L477 339V341L475 343H473L472 345H469V346H459V345H456L453 342L448 341L444 338H441L439 336H436L434 334H431V333H428V332H425V331L421 330L419 342H418V345H417V348H416V351H415L414 355H416L417 357H419V358L423 359L424 361L428 362L429 364H431L432 366H434L435 368H437L438 370H440L443 373V375L445 376V379H446V387H445V390H444L443 394L441 396H439L438 398H436V399L427 400V399L421 398L420 396L413 393L412 391L405 388L404 386H402V385H400L396 382H393L386 389H384L383 391H381L379 394L375 395L374 397L370 398L369 400H367V401H365V402H363L359 405H356L352 408L344 410L342 412H339V413H336V414H333V415H329V416H326V417L310 420V421L294 423V424H287V425H279V426H267V427L223 426V425H214V424L196 422V421H192V420H187V419L175 417V416H172V415L157 411V410L152 409L150 407H147V406H145V405H143V404L129 398L128 396L124 395L123 393L118 391L116 388H114L109 382H105V383L99 385L98 387L94 388L93 390L89 391L88 393H86L82 397H80L78 399H75V400H69V399H65L64 397H62L57 392V389H56V386H55V381H56L57 375L59 374V372L61 370H63L64 368L68 367L69 365H71L75 361H77L80 358L87 355V352H86L84 344H83L82 336H81V330L70 333V334L65 335V336H62L60 338H57V339L47 343L43 346H32V345L28 344L23 339L22 334H21V326H22L23 321L28 316H30L31 314H33L37 311H40V310H42L46 307H49L51 305L57 304L59 302H62V301H65V300L80 296V273H81V266H82L84 253H85V250L87 248V245H88L90 239L92 238L93 234L97 230V229H91L86 224L85 219L83 217L82 208H81V201H80V145H81V139H82V136H83V133H84V130H85L86 126L97 114L101 113L104 110H107V109H110V108H113V107H120V106H128V107ZM244 332H239V333L231 335L225 342V346H224L225 351L231 358H233L235 360H238V361H242V362H259V361H264L266 359H269L270 357H272L275 354V352L277 350V344H276V341L274 340V338H272L270 335H268L266 333H262V332H257V331H244V332ZM186 257H181V258L177 259L170 266V268L168 270V273H167V277H166V291H167V295H168V298H169L170 302L177 309H179L181 311L188 312V311H193V310L197 309L204 302V300L207 296V292H208V276H207V272H206L204 266L202 265V263L200 261H198L197 259H195L193 257L186 256V257ZM313 257H308V258L304 259L298 265V267L296 268V271L294 273V278H293V290H294V295H295L296 300L298 301V303L304 309H306L308 311L315 312V311L323 310L324 308H326L329 305V303L331 302V300L334 296V293H335L336 283H335L334 272H333L331 266L329 265V263L326 260H324L323 258L313 256V257Z" fill="black"/>
</svg>
