<svg width="964" height="994" viewBox="0 0 964 994" fill="none" xmlns="http://www.w3.org/2000/svg">
    <path d="M381.5 185H394.5V186H397.5L399.5 188L409.5 190L412.5 193L420.5 196L439.5 215L442.5 223L445.5 226L446.5 233H447.5V236H448.5L449.5 241H450.5V255H451.5V445H450.5L449.5 455L439.5 465L432.5 466V467H235.5V466H224.5V465H221.5L217.5 462L209.5 461L205.5 457L200.5 456L197.5 452H195.5L193.5 449H191.5V447L188.5 444H186.5V442L180.5 436L178.5 430L174.5 426L173.5 418H172.5V416L170.5 414V411H169.5V400H168.5V251H169.5V240H170.5V237L173.5 233L174.5 225L178.5 221L180.5 215L183.5 213V211L194.5 200H196.5L199.5 196L205.5 194L206.5 192H208.5L210.5 190L217.5 189V188H220.5L221.5 186H225.5V185H238.5V184H381.5V185ZM237.5 227H230.5V228L226.5 229L225.5 231L221.5 232L215.5 238V241L211.5 245V250H210.5V401H211.5L212.5 408L215.5 410V413L222.5 420H225.5L227.5 423L234.5 424V425H407.5L408.5 422H409.5V253H408.5V246L405.5 243L403.5 237L398.5 232L392.5 230L391.5 228L382.5 227V226H237.5V227Z" fill="var(--icon-color)"/>
    <path d="M725.5 185H739.5V186H742.5L744.5 188L754.5 190L758.5 194L763.5 195L766.5 199L771.5 201L779.5 209L781.5 214L785.5 217L786.5 222L790.5 226L791.5 234L794.5 238V243H795.5V408H794.5V413L791.5 417L790.5 425L786.5 429L785.5 434L783.5 435V437L779.5 440V442L770.5 451L765.5 453V455L757.5 458L754.5 461L747.5 462V463H744.5V464L739.5 465V466H728.5V467H531.5V466H527.5L523.5 462L519.5 461L517.5 456L514.5 454V450H513.5V247H514.5V239L517.5 235L519.5 225L523.5 221L524.5 216L528.5 213L530.5 208L532.5 206H534.5V204L536.5 202H538.5L545.5 195L550.5 194L554.5 190L562.5 189V188H564.5L566.5 186H570.5V185H583.5V184H725.5V185ZM581.5 227L572.5 228L570.5 231H567.5L560.5 238L559.5 242L556.5 245V249H555.5V423L557.5 425H729.5V424H734.5L737.5 421L743.5 419L744.5 416H746.5L748.5 414V412H749.5V410H750.5V408L752.5 407V404H753.5V247H752.5V244L750.5 243L749.5 239L747.5 238V236H745.5L743.5 232L737.5 230L736.5 228L727.5 227V226H581.5V227Z" fill="var(--icon-color)"/>
    <path d="M433.5 530L439.5 531L449.5 541L450.5 551H451.5V741H450.5V755H449.5V758L447.5 760L445.5 770L442.5 773L439.5 781L421.5 799H419.5L418.5 801H415.5L414.5 803H412.5L409.5 806L401.5 807V808H399.5L397.5 810H393.5V811H226.5V810H222.5V809L217.5 808V807L210.5 806L207.5 803L199.5 800L180.5 781L177.5 773L174.5 770L172.5 760L170.5 759L169.5 745H168.5V596H169.5V585H170.5V582L173.5 578L174.5 570L178.5 566L179.5 561L183.5 558L185.5 553L190.5 550V548L192.5 546L197.5 544L200.5 540L205.5 539L209.5 535L216.5 534V533H219.5V532L224.5 531V530H234.5V529H433.5V530ZM233.5 572H229.5L226.5 575L222.5 576L215.5 583L214.5 587L211.5 590V595H210.5V746H211.5V750H212.5L213.5 754L215.5 755L216.5 759L221.5 764L227.5 766L228.5 768L238.5 769V770H381.5V769H389.5L392.5 766L398.5 764L403.5 759L405.5 753L407.5 752L408.5 743H409.5V573L407.5 571H233.5V572Z" fill="var(--icon-color)"/>
    <path d="M730.5 530H740.5V531H743.5L744.5 533L754.5 535L757.5 538L765.5 541L768.5 545H770.5L780.5 555V557L784.5 560L785.5 565L787.5 566V568L790.5 571L791.5 579L794.5 583V588H795.5V753H794.5V758L791.5 762L789.5 772L786.5 774L785.5 779L781.5 782L779.5 787L771.5 795L766.5 797L763.5 801L758.5 802L754.5 806L746.5 807V808H744.5L742.5 810H738.5V811H570.5V810H566.5L565.5 808L558.5 807V806H555.5V805L551.5 804L550.5 802L544.5 800L541.5 796L536.5 794V792L533.5 789H531.5V787L524.5 780L523.5 775L519.5 771L517.5 761L514.5 757V749H513.5V546H514.5V542L518.5 539L519.5 535L523.5 534L526.5 530H531.5V529H730.5V530ZM555.5 573V747H556.5V751L559.5 754L560.5 758L566.5 764L570.5 765L572.5 768L583.5 769V770H726.5V769L736.5 768L737.5 766L741.5 765L745.5 760H747.5V758L749.5 757V754L752.5 752V749H753.5V592H752.5V589L750.5 588L748.5 582L743.5 577L737.5 575L735.5 572H730.5V571H557.5L555.5 573Z" fill="var(--icon-color)"/>
</svg>
