<svg width="512" height="512" viewBox="0 0 512 512" fill="none" xmlns="http://www.w3.org/2000/svg">
<path fill-rule="evenodd" clip-rule="evenodd" d="M364 8H372L378 14L388 32L396 52L412 108L437 221L450 260L468 294L471 296L473 301L504 340L503 350L495 359V361L475 380L468 381L464 379L462 376L463 367L469 363L486 344L451 299L433 263L422 230L399 126L386 76L374 42L367 28H365L357 34L337 44L311 53L287 59L226 70L187 82L171 90L156 100L154 103L133 117L130 121H128L118 130L108 136L97 146L92 148L86 154L81 156L79 159L61 171L45 179L44 181L25 189L28 204L41 232L101 319L130 372L140 397V404L136 408L126 407L116 382L97 345L25 238L11 206L8 192V180L12 176L20 174L53 156L68 146L70 143L78 139L80 136H82L108 115H110L113 111L131 99L145 87L177 68L192 62L225 53L281 43L309 36L344 22L364 8Z" fill="var(--icon-color)"/>
<path d="M72 12L80 35L87 45L114 55L120 60V68L116 72L93 80L83 87L72 116L68 120H60L56 116L48 93L41 83L12 72L8 68V60L12 56L35 48L45 41L56 12L60 8H68L72 12ZM59 51L51 59L40 63V65L51 69L59 77L63 88H65L69 77L77 69L88 65V63L77 59L69 51L65 40H63L59 51Z" fill="var(--icon-color)"/>
<path d="M464 12L474 38L500 48L504 52V60L500 64L474 74L464 100L460 104H452L448 100L438 74L412 64L408 60V52L412 48L438 38L448 12L452 8H460L464 12ZM453 46L446 53L440 55V57L446 59L453 66L455 72H457L459 66L466 59L472 57V55L466 53L459 46L457 40H455L453 46Z" fill="var(--icon-color)"/>
<path fill-rule="evenodd" clip-rule="evenodd" d="M273 96H284L288 98L294 103L300 112L311 137L328 191L336 211L337 202L331 150L332 116L336 107L345 101L358 102L368 112L375 127L383 153L408 253L429 300L445 341L451 371L454 409L504 468V476L500 480H492L484 472V470L473 459V457L462 446V444L445 426L439 417L436 402L434 371L429 346L390 253L362 141L356 125L351 118L348 120V151L354 203V230L351 238L346 242H338L334 240L327 231L314 202L291 132L284 117L280 113L275 115L273 120V127L279 152L301 215L307 237V251L302 258L297 260L290 259L285 256L274 244L261 221L259 220L258 216L256 215L251 204L249 203L223 155L205 128L199 131L200 143L212 169L214 170L217 178L219 179L234 208L236 209L255 247L262 266V279L255 284H246L238 280L218 261V259L212 254V252L207 248V246L193 231V229L173 208L168 205L164 207V213L170 226L173 228L175 233L185 244L194 258L197 260V262L210 277L224 298L227 300L255 342L263 361V369L260 375L255 378H244L238 376L215 362L213 359L208 357L206 354L201 352L199 349L184 339L169 331L159 330L153 335L152 339L156 344L162 347L165 351H167L170 355L182 363L186 368H188L192 373H194L199 379H201L213 392H215L241 417H243L250 424L255 426L257 429L272 439L299 452L328 460L347 468L351 472L358 486L360 492L359 502L356 504L346 503L340 487L335 480L286 465L264 454L246 442L231 429H229L225 424H223L217 417H215L181 384H179L165 371L147 359L138 350L135 342V337L140 324L153 314L166 313L187 321L188 323L192 324L210 336L226 349L238 357L244 359L242 353L240 352L239 348L237 347L236 343L222 322L219 320L209 304L206 302V300L203 298V296L200 294V292L197 290V288L194 286V284L191 282V280L188 278V276L178 265V263L175 261V259L172 257V255L169 253V251L166 249V247L154 232L148 219L147 206L151 196L162 188H170L178 191L200 211V213L205 217V219L210 223V225L215 229V231L220 235V237L225 241L230 249L241 259L225 224L223 223L220 215L218 214L203 185L201 184L195 170L192 167L182 140V129L187 119L197 112L209 111L220 119V121L229 132L238 150L240 151L249 169L251 170L253 176L255 177L257 183L259 184L261 190L263 191L265 197L270 203L272 209L288 233L262 154L256 126V119L259 108L266 100L273 96Z" fill="var(--icon-color)"/>
<path d="M80 372L95 409L109 416L130 423L136 428V436L132 440L109 448L95 455L82 484L80 492L76 496H68L64 492L54 464L49 455L40 450L12 440L8 436V428L12 424L40 414L49 409L54 400L64 372L68 368H76L80 372ZM65 416L56 425L42 430L40 433L56 439L65 448L70 462L73 464L79 448L88 439L102 434L104 431L88 425L79 416L74 402L71 400L65 416Z" fill="var(--icon-color)"/>
<path fill-rule="evenodd" clip-rule="evenodd" d="M143 448H151L155 452L160 487L194 482L243 469L256 464H260L266 469V476L261 481L204 497L173 503L148 504L144 500L143 496L142 475L139 462V452L143 448Z" fill="var(--icon-color)"/>
</svg>
