<svg width="512" height="512" viewBox="0 0 512 512" fill="none" xmlns="http://www.w3.org/2000/svg">
<g clip-path="url(#clip0_1_3)">
<path d="M410 2H412L416 6V8L418 10V20L412 28H410V29L398 34V35H395V36H393V37H391V38H389L387 40H384V41H382V42H380V43H378V44H376L374 46H371V47H369V48H367V49H365L363 51H360V52H358V53H356V54H354V55H352L350 57H347V58H345V59H343V60H341V61H339L337 63H334V64H332V65H330V66H328L326 68H323V69H321V70H319V71H317V72H315L313 74H310V75H308V76H306V77H304L302 79H299V80H297V81H295V82H293V83H291L289 85H286V86H284V87H282V88H280L278 90H275V91H273V92H271V93H269V94H267L265 96H262V97H260V98H258L256 100H254V101H251V102H249V103H247V104H245L241 107H238V108H236V109H234V110H232L228 113H225V114H223V115H221L217 118H214V119H212V120H210V121H208L204 124H201V125L193 128V129H190V130H188V131H186V132H184L180 135H177V136H175V137H173L169 140H166V141H164V142H162V143H160L156 146H153V147H151V148H149L145 151H142V152H140V153H138V154H136L132 157H129V158H127V159H125L121 162H118V163H116V164H114V165H112L108 168H105V169H103V170H101V171H99L95 174H92V175H90V176H88L84 179L71 180L63 174V172L61 170V160L67 152H69V151H71V150H73V149H75L79 146H82V145H84V144H86V143H88L92 140H95V139H97V138H99L103 135H106V134H108V133H110V132H112L116 129H119V128H121V127H123V126H125V125H127L129 123H132V122H134V121H136L140 118H143V117H145V116H147V115H149L153 112H156V111H158V110H160L164 107H167V106H169V105H171V104L178 101V99L176 97V94H175L174 85H173V67H174V62H175V59H176V55H177L182 43L188 37V35L192 31H194L197 27L202 25L203 23H205L207 21H210L212 19H215V18L223 17V16L248 17V18L257 20V21L265 24L266 26H268L270 29H272L280 37V39L285 44L287 50L289 51V50H291V49H293V48H295V47H297L299 45H302V44H304V43H306V42H308L310 40H313V39H315V38H317V37H319L321 35H324V34L330 32V31H332L334 29H337V28L345 25V24H348V23H350V22L358 19V18H361V17H363V16L371 13V12H374V11H376V10L382 8V7H385V6H387L389 4L395 2V1H398V0H408L410 2ZM226 48L220 49L217 52H215L210 57V59L208 60L206 66H205V69H204V83H205L206 88H208L212 85H215V84H217V83H219V82H221L225 79H228V78H230V77H232L236 74H239V73H241V72H243V71H245L249 68H252V67L260 64L258 59L250 51H248L244 48H241V47H226V48Z" fill="var(--icon-color)"/>
<path fill-rule="evenodd" clip-rule="evenodd" d="M391 65H405V66L410 67L415 73L416 85H415L414 89L410 93H408L406 95L388 97V98H385V99H383V100H381L379 102V104L377 105L376 111H375V116H374V129H373L372 141H371L369 150H368L364 160L354 170H352L351 172H349L345 175H342L340 177L327 179V180H311V179L307 178L301 170V160H302L303 156L311 150L329 148V147H332V146H334L338 143V141L341 137V134H342L343 115H344L346 100H347V97H348L349 92L352 89L353 85L357 82L358 79H360L366 73H368V72H370L372 70L381 68V67L391 66V65Z" fill="var(--icon-color)"/>
<path fill-rule="evenodd" clip-rule="evenodd" d="M481 65H495V66L500 67L505 73L506 85H505L504 89L500 93H498L496 95L478 97V98H475V99H473V100H471L469 102V104L467 105L466 111H465V116H464V129H463L462 141H461L459 150H458L454 160L444 170H442L441 172H439L435 175H432L430 177L417 179V180H401V179L397 178L391 170V160H392L393 156L401 150L419 148V147H422V146H424L428 143V141L431 137V134H432L433 115H434V108H435L436 100H437V97H438L439 92L442 89L443 85L447 82L448 79H450L456 73H458V72H460L462 70L471 68V67L481 66V65Z" fill="var(--icon-color)"/>
<path d="M476 211L483 212V213L488 214L489 216L493 217L505 229V231H506V233H507V235L510 239V242H511V246H512L511 272H510V276H509L508 282L506 284V287L503 290L501 296L496 301V303L485 314H483L478 319L472 321L471 323H468L464 326L452 329V449H451V454H450V458H449L448 464L446 466V469H445L444 473L442 474L441 478L439 479V481L436 483V485L425 496H423L418 501H416L413 504H411L409 506H406L404 508L394 510V511H389V512H123V511H118V510L108 508L104 505L99 504L98 502L94 501L93 499H91L89 496H87L76 485V483L71 478V476L68 473V471L66 469V466L64 464L62 454H61V449H60V329L48 326L44 323H41L40 321L34 319L28 313H26L16 303V301L11 296L9 290L6 287V284L4 282L2 272H1L0 246H1L2 239L4 237V234L6 233L7 229L11 226V224L15 220H17L19 217L27 214L29 212L36 211V210H476V211ZM90 438H91V447H92L93 453L95 455V458L97 459L99 464L108 473H110L111 475H113L114 477H117L119 479H122V480H125V481H134V482H378V481H387V480L393 479L395 477H398L399 475L404 473L413 464V462L415 461V459L417 458V455L419 453V450H420V447H421V438H422V240H90V438ZM44 241H40V242L36 243L33 246L32 250H31V254H30L31 265H32L34 274L37 277V279L39 280V282L48 291H50L54 295H57V296L60 297V240H44V241ZM452 297H453V296L458 295L462 291H464L473 282V280L477 276V273H478L480 265H481L482 254H481V250H480L479 246L476 243L472 242V241L452 240V297Z" fill="var(--icon-color)"/>
</g>
<defs>
<clipPath id="clip0_1_3">
<rect width="512" height="512" fill="white"/>
</clipPath>
</defs>
</svg>
