<svg width="512" height="512" viewBox="0 0 512 512" fill="none" xmlns="http://www.w3.org/2000/svg">
    <path fill-rule="evenodd" clip-rule="evenodd" d="M251 16H293V17H303V18L321 20V21L337 24V25H340V26H344V27L356 30L358 32H361L363 34H366V35H368V36H370L372 38H375V39L385 43L386 45L392 47L393 49L397 50L398 52H400L403 55H405L406 57H408L410 60H412L417 65H419L422 69H424L428 74H430L439 84H441L443 86V88L454 98V100L463 109V111L466 113V115L469 117V119L471 120V122L475 126V128L478 131L479 135L481 136L483 142L485 143V145H486V147H487V149L490 153V156H491V158L494 162V165L496 167V170L498 172V175H499V178H500V181H501V184H502V188H503V191H504V195H505V199H506V203H507V207H508V213H509L510 225H511V235H512V277H511V287H510L508 305H507L504 321H503V324H502V328H501L498 340L496 342V345L494 347V350H493V352L490 356V359H489L485 369L483 370L481 376L479 377L478 381L476 382V384L473 387V389L471 390V392L468 394V396L463 401V403L459 406V408L454 412V414L443 424L442 427H440L430 438H428L419 447H417L415 450L410 452L408 455H406L402 459H400L397 462L393 463L392 465L384 468L383 470H381V471H379L375 474H372V475H370L366 478H363L361 480H358L356 482H353V483H350V484H347V485H344V486H340V487H337V488H333V489H329V490H325V491H321V492H315V493L303 494V495H293V496H248V495H238V494L226 493V492L216 491V490H212V489H208V488H205V487H202V486L192 484L190 482L184 481L182 479H179V478H177L173 475H170V474L160 470L159 468L153 466L152 464L148 463L147 461H145L144 459L140 458L138 455L133 453L131 450H129L127 447H125L121 442H119L111 433H109L104 428V426L94 417V415L89 411V409L86 407V405L81 400L80 387H81V384L83 383V381L85 379H87L88 377H91V376L104 377L105 379H107L109 381V383L116 390V392L122 397V399L137 414H139L144 420H146L148 423H150L156 429H158L162 433L166 434L167 436L171 437L172 439H174V440H176V441H178V442H180V443H182V444H184L188 447H191L195 450L201 451V452L209 454V455H213V456L224 458V459L234 460V461L248 462V463H264V464L293 463V462L313 460V459H318V458L326 457V456H329V455H333V454L345 451L347 449H350L354 446H357V445H359V444L373 438L374 436L380 434L381 432H383L384 430H386L387 428H389L390 426L395 424L402 417H404L409 411H411L427 395V393L433 388V386L440 379V377L442 376V374L444 373V371L446 370V368L450 364L451 360L453 359V357H454V355H455V353H456V351H457V349H458V347H459V345L462 341V338H463V336L465 334V331H466V328L468 326V323H469V320H470V317H471V313H472V310H473L474 302H475V297H476V292H477V285H478V277H479V261H480L479 235H478L477 220H476V215H475V210H474L473 202H472V199H471V195H470L468 186L466 184L465 178L462 174V171H461V169H460L454 155L452 154L450 148L448 147V145L446 144V142L444 141V139L442 138L440 133L433 126V124L427 119V117L411 101H409L399 91H397L395 88H393L392 86H390L389 84H387L386 82H384L380 78L376 77L375 75H373V74H371V73H369V72H367V71H365V70H363V69H361V68H359V67H357L355 65L347 63L345 61H342V60H339V59H336V58H333V57H329V56H326V55L313 53V52L293 50V49L270 48V49L242 50V51H236V52H231V53H226V54L218 55V56H215V57H211V58L202 60L200 62L194 63L190 66H187V67H185V68L171 74L170 76L166 77L165 79L161 80L160 82H158L157 84L152 86L150 89H148L142 95H140L135 101H133L117 117V119L111 124V126L107 129L105 134L102 136V138L100 139V141L98 142V144L94 148L93 152L91 153V155H90V157H89V159H88V161H87V163H86V165H85V167L82 171V174L79 178V181H78V184L76 186V189H75V192H74V195H73V199H72V202H71L70 211H69V215H68V220L77 211H79L82 208H94L97 211H99L101 213V215L103 216L104 229H103V232L101 233V235L59 277H57L56 279H53V280H42L39 277H37L35 275V273L33 272V270L31 269V267L29 266V264L27 263V261L25 260V258L23 257V255L21 254V252L19 251V249L17 248V246L15 245V243L13 242V240L11 239V237L9 236V234L7 233V231L5 230V228L3 227V225L1 224V221H0L1 208L6 202H8L10 200H15L16 199V200L24 201L29 205V207L32 209L34 214L36 213L37 203H38L40 191H41V188H42V184H43L45 175L47 173L48 167L50 165V162H51V160L54 156V153H55L59 143L61 142V140H62L63 136L65 135L66 131L68 130L69 126L71 125V123L73 122L75 117L78 115V113L81 111V109L85 106V104L89 101V99L100 89V87L102 85H104L115 73H117L125 65H127L133 59H135L136 57H138L142 53L146 52L150 48H152V47L158 45L159 43H161V42H163V41H165L169 38H172V37H174L178 34H181L183 32H186L188 30H191V29H194V28H197V27H200V26H204V25L219 22V21L235 19V18H242V17H251V16Z" fill="var(--icon-color)"/>
    <path fill-rule="evenodd" clip-rule="evenodd" d="M259 104L272 105L273 107H275L277 109V111L279 112V115H280V256L283 257L285 260H287L289 263H291L293 266H295L297 269H299L301 272H303L305 275H307L310 279H312L314 282H316L318 285H320L322 288H324L326 291H328L330 294H332L334 297H336L338 300H340L347 307H349L351 310H353L355 313H357L359 316H361L363 319H365L367 322H369L373 326V328L375 330V334H376V339H375V342H374L373 346L365 352H354V351H351L350 349H348L346 346H344L342 343H340L338 340H336L334 337H332L330 334H328L326 331H324L322 328H320L318 325H316L314 322H312L310 319H308L306 316H304L302 313H300L298 310H296L294 307H292L290 304H288L286 301H284L282 298H280L278 295H276L274 292H272L270 289H268L266 286H264L262 283H260L258 280H256L250 274V272L248 270V115H249V112L251 111V109L253 107H255L256 105H259V104Z" fill="var(--icon-color)"/>
</svg>
