<svg width="512" height="513" viewBox="0 0 512 513" fill="none" xmlns="http://www.w3.org/2000/svg">
<path fill-rule="evenodd" clip-rule="evenodd" d="M324 51H356V52L363 53L368 58V60L370 62L369 74L367 75L366 78H364L363 80L358 81V82H322V81L317 80L311 73L310 64H311V61H312L313 57L316 54H318L320 52H324V51Z" fill="black"/>
<path fill-rule="evenodd" clip-rule="evenodd" d="M403 51H435V52H440L447 58V60L449 62V71H448L447 75L445 76V78H443L442 80L437 81V82H401V81H398L391 75L390 70H389V63H390L391 58L395 54H397L399 52H403V51Z" fill="black"/>
<path d="M453 1H456V2H459V3H462L464 5L468 6L470 9H472L479 16V18L482 20L483 24L486 28L487 35H488V43H489V470H488V478H487L486 485H485L482 493L479 495V497L472 504H470L468 507H466L462 510H459V511H456V512H453V513H60V512L53 511V510L45 507L32 495L31 491L29 490V488L27 486V482H26V479H25V472H24V41H25V34H26V31H27V27H28L29 23L31 22L32 18L45 6H47L49 4L53 3V2L60 1V0H453V1ZM55 474L61 481L65 482V483H447V482L452 481L456 477V475L458 473V134H55V474ZM65 31L61 32L55 39V103H458V40L452 32L447 31V30H65V31Z" fill="black"/>
<path d="M270 166L284 167V168L296 170V171L311 175V176H313V177H315L319 180H322L323 182L329 184L330 186L334 187L339 192L344 194L348 199H350L366 215V217L371 221V223L373 224V226L375 227V229L379 233L380 237L382 238V240H383V242H384V244H385V246L388 250V253L391 257V260H392V263H393V266H394V269H395V274H396L397 283H398V290H399L400 316H399L398 334H397V339H396L394 351L392 353L390 362H389V364H388V366L385 370V373H384L383 377L381 378L380 382L378 383L377 387L372 392V394L369 396V398L346 421H344L338 427L334 428L333 430L326 433L325 435L320 436V437H318V438H316L312 441H309L307 443H304V444H301V445H298V446H294V447L287 448V449L274 450V451H262V452L238 451V450H232V449H226V448L214 446L212 444L203 442L199 439H196V438L186 434L185 432H183L182 430L178 429L173 424H171L169 421H167L164 417H162L147 402V400L143 397V395L140 393V391L137 389L136 385L134 384L133 380L131 379V377H130V375H129V373H128L125 365H124L123 359L121 357V354H120V351H119V348H118L116 335H115L114 320H113V296H114L115 281H116L118 269H119L123 254H124V252L127 248V245L130 242L133 234L135 233V231L137 230V228L141 224V222L158 205V203H160L165 197H167L170 193H172L173 191H175L176 189H178L182 185L188 183L189 181H191L193 179H196V178H198L202 175H205V174L211 173L213 171H216V170H221V169H225V168H229V167H235V166H242V165H270V166ZM248 315H244V316H241V317L235 319L234 321L230 322L229 324H227V325H225L221 328H218L216 330L209 331V332H204V333H180V332L171 331V330H168V329H166L162 326H159L158 324H156L153 321L149 320L148 318L144 317L145 330H146V334H147V338H148L150 348L153 352V355H154L158 365L160 366V368L162 369V371L164 372L166 377L170 380V382L182 394H184L187 398H189L191 401H193L197 405L201 406L202 408H204L208 411H211L215 414L224 416V417L237 419V420H243V421H269V420H276V419L289 417V416L298 414V413H300V412H302L306 409H309L310 407L314 406L315 404L319 403L321 400L326 398L330 393H332L341 384V382L346 378V376L349 374V372L353 368V366H354L356 360L358 359L359 354L362 350V347H363V344H364V341H365V338H366V333H367V329H368V321H369V317H367L364 320L360 321L359 323H357V324H355V325H353V326H351L347 329L337 331V332H332V333H309V332H304V331L294 329V328L284 324L283 322H281V321L277 320L276 318H274L272 316H269V315H265V314H248V315ZM251 196L234 197V198H230V199H226V200L214 203V204H212L210 206H207L206 208L198 211L197 213H195L194 215L189 217L187 220H185L169 236V238L165 241V243L163 244V246L159 250V252H158L157 256L155 257V260H154V262L151 266V269H150V272H149V275H148V278H147L146 285L150 286V287H153L155 289H158L161 292L167 294L168 296H170V297H172V298H174L178 301L186 302V303H198V302L207 301V300L213 298L214 296L218 295L219 293H221V292H223V291H225V290H227L231 287L242 285V284H249V283H263V284L275 285V286L284 288V289L292 292L293 294L297 295L298 297H300V298H302L306 301L315 302V303H326V302L335 301V300L343 297L344 295L350 293L351 291L367 285L365 275L363 273L362 267L360 265V262H359V260L356 256L355 252L353 251L352 247L347 242V240L343 237V235L329 221H327L325 218H323L321 215L314 212L313 210H311V209H309V208H307V207H305L301 204H298L296 202H293V201H290V200H287V199H283V198L272 197V196L251 195V196Z" fill="black"/>
</svg>
