<svg width="512" height="512" viewBox="0 0 512 512" fill="none" xmlns="http://www.w3.org/2000/svg">
<path d="M193 145H200V146L215 148V149H218V150L228 152V153L233 154L235 156H238V157L250 162L251 164L255 165L256 167L260 168L261 170H263L265 173H267L269 176H271L275 181H277L291 195V197L296 201V203L302 209V211L304 212L305 216L307 217L308 221L310 222V224H311V226H312V228L315 232V235L318 239V242H319V245L321 247L323 257H324V262H325L326 272H327V279H328V316L324 320H303L300 327L295 332L287 335V343H286V350H285V357H284V365H283V372H282V379H281V387H280V394H279V401H278V409H277V416H276V423H275V431H274V438H273V445H272V453H271L267 488H266V491H265L264 496L262 497V499L254 507H252V508H250L246 511H243V512H109V511H106V510L98 507L90 499V497L87 494L86 488H85L83 467H82V460H81V453H80V445H79V438H78V431H77V423H76V416H75V409H74V401H73V394H72V387H71V379H70V372H69V365H68V357H67V350H66V343H65V335H63V334L59 333L58 331H56L53 328V326L51 325L49 320H28L24 316V279H25V272H26L28 257H29L30 250H31L32 244L34 242V239L37 235V232H38L42 222L44 221L45 217L47 216L48 212L53 207V205L56 203V201L61 197V195L75 181H77L81 176H83L89 170H91L92 168H94L97 165L101 164L102 162H104V161H106V160H108L112 157H115L119 154L130 151V150H134V149L142 148V147H146V146L159 145V144H193V145ZM82 343H83V350H84V357H85V365H86V372H87V379H88V387H89V394H90V401H91V409H92V416H93V423H94V431H95V438H96V445H97V453H98V460H99V467H100L101 482H102L103 488L109 494L116 495V496H236V495L243 494L249 488L250 482H251V475H252V467H253V460H254V453H255V445H256V438H257V431H258V423H259V416H260V409H261V401H262V394H263V387H264V379H265V372H266V365H267V357H268L270 336H82V343ZM71 305H68L65 308V311H64L65 316L68 319H71V320H281V319H284L287 316V313H288L287 308L284 305H281V304H71V305ZM174 161H159V162L147 163V164L139 165V166L127 169L125 171H122V172L108 178L107 180H105L104 182L100 183L98 186L93 188L89 193H87L73 207V209L68 213L66 218L61 223V225L58 228V230H57V232H56V234H55V236H54V238L51 242V245L49 247V250H48V253H47V256H46V259H45L44 267H43V272H42L40 304H49L52 297L57 292H59L63 289H66V288H286V289H289V290L295 292L300 297L303 304H312L311 279H310L309 267H308V263H307V259H306L303 247L301 245V242H300L294 228L292 227L291 223L286 218L284 213L279 209V207L265 193H263L255 185H253L249 181L245 180L244 178H242V177H240V176H238V175H236V174H234L230 171H227L225 169H222V168H219V167H216V166H213V165L200 163V162L174 160V161Z" fill="var(--icon-color)"/>
<path d="M399 1L404 2L405 4H407L412 9V11L415 14V17H416V315L418 316V318L420 319V321L423 325L424 342L431 345L432 347L436 348L437 350H439L441 353H443L455 365V367L458 369L461 376L463 377V379L466 383V386L468 388L470 399H471V404H472V453H473V465H474L475 474H476L478 483L480 485V488H481L483 494L485 495V497L488 500V508L484 512H300L296 508V500L298 499L299 495L301 494V492L304 488V485L306 483V480H307V477H308V474H309L310 465H311V453H312V404H313V399H314L316 388L318 386V383H319L321 377L323 376L324 372L329 367V365L341 353H343L345 350H347L348 348H350L353 345L360 342L361 325H362L364 319L366 318V316L368 315V17H369V14L372 11V9L377 4H379L380 2L385 1V0H399V1ZM390 353H380V354L372 355L370 357H367V358L359 361L358 363L353 365L341 377V379L337 383V385H336V387L333 391V394L331 396V400H330V404H329V413H328V465H327V471H326V476H325V479H324L323 486H322L321 491H320L318 496H353L355 468H356V453H357V420H358L359 415L362 414V413H370L374 417V451H373V466H372V479H371L370 496H414L413 479H412V467H411V452H410V417L414 413L424 414L425 417H426V420H427V453H428V468H429L431 496H466L464 491H463V488L461 486L460 479H459V476H458V471H457V465H456V414H455V404H454L453 396L451 394V391H450L447 383L442 378V376L431 365H429L425 361H423V360H421L417 357H414L412 355H408V354H404V353L390 352V353ZM391 321L384 322L378 328L376 337H380V336H404V337H408L406 328L400 322L391 320V321ZM391 17H388L385 20V23H384V305L385 304H399L400 305V23H399V20L396 17L391 16V17Z" fill="var(--icon-color)"/>
</svg>
