<svg width="512" height="512" viewBox="0 0 512 512" fill="none" xmlns="http://www.w3.org/2000/svg">
<path d="M287 1H291V2H293L295 4H297V5H299L306 12V14L308 15L309 19H310V22H311V25H312V32H313V40H314V48H315L317 68L325 70V71L330 72L332 74H335V75H337V76H339V77H341V78H343L345 80L348 79L350 76H352L359 69H361L368 62H370L377 55H379L380 53H382V52H384L386 50L394 49V48H401V49H406V50L412 51L415 54H417L458 95V97L461 100V103H462V106H463V111H464L463 123H462V126H461L459 132L457 133V135L454 137V139L450 142V144L447 146V148L443 151V153L440 155V157L437 159V161L432 166L435 173H436V175H437V177H438V180L440 182V185L442 187L444 195L491 201V202L497 204L498 206H500L507 213V215H508V217L511 221V225H512V287H511V291H510L507 299L500 306H498L497 308H495L493 310H490V311H487V312H480V313H472V314H464V315L444 317L442 325H441L440 330L438 332V335H437V337H436V339H435V341L432 345L433 348L440 355V357L447 364V366L454 373V375L457 377V379L459 380V382L462 386L463 394H464V401H463V406H462L461 412L459 413L458 417L417 458H415L412 461H409V462H406V463H401V464L389 463V462H386V461L380 459L379 457H377L375 454H373L370 450H368L366 447H364L361 443H359L357 440H355L352 436H350L346 432L339 435V436H337V437H335V438H332L330 440H327L325 442L317 444L311 491H310L308 497L306 498V500L299 507H297V508H295L291 511H287V512H225V511H221V510L215 508L214 506H212L206 500V498L204 497V495L201 491L195 444L187 442V441L182 440L180 438H177V437H175V436H173V435H171L167 432L164 433L157 440H155L148 447H146L139 454H137L135 457H133L132 459H130L126 462L111 464V463H106V462L100 461L97 458H95L54 417V415L51 412V409H50V406H49V401H48L49 389H50V386H51L53 380L55 379V377L58 375V373L62 370V368L65 366V364L69 361V359L72 357V355L76 352V350L80 346L77 339H76V337H75V335H74V332L72 330V327L70 325L68 317L21 311V310L15 308L14 306H12L5 299V297L3 295V293H2V291H1V287H0V225H1V221L4 217V215H5V213L12 206H14L15 204L19 203L21 201L68 195L70 187H71L72 182L74 180V177H75V175H76V173H77V171L80 167L79 164L72 157V155L69 153V151L62 144V142L55 135V133L53 132V130H52L51 126H50L49 118H48V111H49V106H50L51 100L54 97V95L95 54H97L100 51H103V50H106V49H111V48L123 49V50H126V51L132 53L133 55H135L137 58H139L141 61H143L146 65H148L151 69H153L155 72H157L159 75H161L166 80L173 77V76H175V75H178L182 72H185L187 70L195 68L201 21H202L204 15L206 14V12L213 5H215L219 2H221V1H225V0H287V1ZM227 24L224 25L223 29H222L216 80H215L214 84L211 85L210 87H207V88L200 89V90H197L195 92L189 93V94H187L183 97H180V98L174 100L171 103L161 104L158 101H156L153 97H151L149 94H147L144 90H142L140 87H138L135 83H133L131 80H129L126 76H124L122 73H120L119 71H110L73 107V109L71 110V119L76 124V126L80 129V131L83 133V135L87 138V140L90 142V144L94 147V149L97 151V153L103 159L104 169H103L100 177L97 180V183H96V185L94 187V190L92 192V195L90 197L87 210L85 211L84 214H82L80 216H74V217H66V218H58V219H50V220L29 222V223L24 225V227L22 228V284L24 285L25 288L29 289V290L80 296V297L84 298L85 301L87 302L88 309H89L90 315L92 317V320L94 322V325H95V327L97 329V332H98L100 338L103 341L104 351L101 354V356L97 359V361L94 363V365L90 368V370L87 372V374L83 377V379L80 381V383L76 386V388L73 390V392L71 393V402L107 439H109L110 441H118V440L122 439L125 435H127L134 428H136L138 425H140L142 422H144L147 418H149L151 415H153L156 411H158L161 408H168V409H171L174 412H176L178 414H181V415H183L187 418H190V419L195 420V421L200 422V423L210 425L211 427L214 428V430L216 432V438H217V446H218V454H219V462H220L222 483H223L225 488H227L228 490H284L285 488L288 487V485L290 483L296 432H297L298 428L301 427L302 425L309 424V423L315 422L317 420H320L322 418H325L329 415H332V414L336 413L337 411H339L341 409L351 408L354 411H356L359 415H361L363 418H365L368 422H370L372 425H374L377 429H379L381 432H383L386 436H388L390 439H392L393 441H402L439 405V403L441 402V393L439 392V390L436 388V386L432 383V381L429 379V377L425 374V372L422 370V368L418 365V363L415 361V359L409 353L408 343H409L410 339L412 338V336L414 334V331H415V329L418 325V322L420 320V317L422 315L425 302L427 301L428 298H430L432 296H438V295H446V294H454V293H462V292L483 290V289L488 287V285L490 284V228L488 227L487 224H485L483 222L432 216V215L428 214L427 211L425 210L424 203H423L422 197L420 195L419 189H418V187L415 183V180H414L413 176L411 175V173L409 171L408 161L411 158V156L415 153V151L418 149V147L422 144V142L425 140V138L429 135V133L432 131V129L436 126V124L439 122V120L441 119V110L405 73H403L402 71H393L392 73H390L387 77H385L383 80H381L378 84H376L374 87H372L369 91H367L365 94H363L361 97H359L353 103L343 104V103L339 102L338 100H336L334 98H331V97H329V96H327L325 94H322L320 92H317L315 90L302 87L301 85L298 84V82L296 80V74H295V66H294V58H293V50H292L290 29H289L287 24H285L284 22H228L227 24Z" fill="var(--icon-color)"/>
<path d="M267 150H274V151L284 152V153L296 156V157H298V158L312 164L313 166L318 168L320 171H322L325 175H327L337 185V187L341 190V192L344 194V196L348 200V202H349V204H350V206H351V208H352V210H353V212L356 216V219H357V222H358V225H359V228H360V233H361V238H362V245H363V267H362V274H361L359 287H358L356 296H355V298H354L348 312L346 313L344 318L341 320V322L337 325V327L327 337H325L322 341H320L318 344H316L312 348H310V349H308V350H306V351H304V352H302V353H300L296 356H293V357H290V358H287V359H283V360H279V361L267 362V363H245V362H238V361L228 360V359L219 357L217 355H214V354L200 348L199 346L194 344L192 341H190L187 337H185L175 327V325L171 322V320L168 318V316L164 312V310H163V308H162V306H161V304H160V302H159V300L156 296V293H155V290H154V287H153V284H152V279H151V274H150V267H149V245H150V238H151L152 228H153L156 216H157V214H158L164 200L166 199L168 194L171 192V190L175 187V185L185 175H187L190 171H192L194 168H196L200 164H202V163H204V162H206V161H208V160H210V159H212L216 156H219V155H222V154H225V153H228V152H233V151H238V150H245V149H267V150ZM248 172H241V173L232 174V175L226 176L224 178H221V179L215 181L214 183L210 184L205 189H203L189 203V205L186 207L183 214L181 215V217L178 221V224L176 226L175 232H174L173 241H172V248H171V264H172V271H173L174 280H175L176 286L178 288V291H179L181 297L183 298L184 302L189 307V309L203 323H205L207 326L214 329L215 331H217L221 334H224L226 336L232 337V338L241 339V340H248V341H264V340H271V339L280 338V337L286 336L288 334H291V333L297 331L298 329L302 328L307 323H309L323 309V307L326 305L329 298L331 297V295L334 291V288L336 286L337 280H338L339 271H340V264H341V248H340V241H339L338 232H337L336 226L334 224V221H333L331 215L329 214L328 210L323 205V203L309 189H307L305 186L298 183L297 181H295L291 178H288L286 176L280 175V174L271 173V172H264V171H248V172Z" fill="var(--icon-color)"/>
</svg>
