<svg width="512" height="512" viewBox="0 0 512 512" fill="none" xmlns="http://www.w3.org/2000/svg">
    <path fill-rule="evenodd" clip-rule="evenodd" d="M193 0H216V1H221V2H224V3L230 4L232 6H235L238 9L242 10L246 14H248L255 21L259 20L263 15H265L270 10H272V9L282 5V4H285V3H288V2H291V1H296V0H319V1H324V2H327V3L336 5L338 7H340L341 9L345 10L346 12H348L350 15H352L361 24V26L364 28V30L368 34L371 42L374 46L375 52H376L379 71L400 72V73L411 75V76L423 81L424 83H426L428 86H430L439 95V97L442 99V101L444 102L445 106L447 107V109L449 111V114L451 116L453 126H454V132H455V157H454V163H453L452 171H451L450 177L448 179V182H447L442 194L440 195L436 205L434 206V208H433V210L430 214V217H429V219L426 223L424 231L422 233V236H421V239H420V242L418 244V248H417V251H416V254H415V258H414V262H413V266H412V270H411V275H410L409 288H408V297H407V506H406L405 511H403V512H397L394 509V298H395V288H396V281H397L399 265H400L403 249H404V246H405L409 231L411 229V226L413 224L415 216H416V214H417V212H418V210H419V208H420L426 194L429 191V189H430V187H431V185H432V183H433V181H434V179L437 175V172H438V169H439V166H440L441 157H442V146H443L442 132H441V127H440V124H439V121H438V118H437L435 112L433 111L431 106L428 104V102L423 97H421L419 94H417L416 92H414L411 89H408L406 87L399 86V85H394V84L370 85L367 82L366 66H365V61H364L362 51H361L356 39L354 38V36L350 33V31L345 26H343L340 22L336 21L335 19H333L331 17H328L326 15L318 14V13H309V12H307V13H297V14H293V15L284 17V18L280 19L279 21L275 22L273 25H271L260 37H257V38L252 37L237 22L233 21L232 19H230L228 17L220 15V14L203 12V13L189 14V15H186L184 17H181V18L177 19L176 21H174L173 23H171L167 28H165V30L159 35V37L155 41V43H154V45L151 49V52H150V55H149V58H148V62H147V66H146L145 82L142 85L118 84V85H112V86L106 87L104 89H101L100 91L96 92L91 97H89L83 103V105L80 107V109L78 110V112H77V114H76V116L74 118V121H73L72 127H71V131H70V139H69L70 158H71V162H72V166H73L75 175H76L82 189L84 190V192H85V194H86V196H87V198H88V200H89V202H90V204H91V206H92V208H93V210L96 214V217L99 221L101 229L103 231V234H104L107 246H108V250H109V253H110L112 265H113L115 281H116V288H117V298H118V509L115 512H109L106 509V506H105V297H104V288H103V281H102L101 270H100L97 254H96V251H95V248H94L90 233L88 231L86 223H85V221H84V219L81 215V212H80L77 204L75 203L72 195L70 194V192H69V190H68V188H67V186L64 182V179H63L61 171H60V167H59V163H58V157H57V132H58V126H59V122H60L62 113H63L66 105L68 104L70 99L73 97V95L82 86H84L89 81H91V80H93V79H95V78H97V77H99L101 75H104V74H108V73H112V72H118V71H133L135 56H136L138 47L140 45V42H141L143 36L145 35L146 31L153 24V22L159 16H161L163 13H165L167 10L173 8L174 6H177L179 4H182V3H185V2H188V1H193V0Z" fill="var(--icon-color)"/>
    <path d="M213 36V37L221 39L222 41L227 43L236 52V54L240 58L243 66H244V69L246 71V75H247L249 95H248V102H247L246 110H245L241 120L239 121V123L233 129H231L230 131H228L224 134H220V135H205V134L199 133V132L193 130L191 127H189L181 119V117L178 115L177 111L175 110L174 105H173L172 100H171V97H170V93H169L168 72H169L170 63H171V60L173 58L174 53L179 48V46L182 43H184L186 40H188L192 37H195V36H199V35L213 36ZM200 49H197V50L193 51L186 58V60L183 64L182 72H181V87H182L183 96L185 98V101H186L187 105L191 109V111L198 118H200V119H202L206 122H219V121L223 120L224 118H226L228 116V114L232 110L234 102H235L236 86H235L234 76H233V73L231 71L230 66L228 65L226 60L219 53H217L216 51H214L212 49L200 48V49Z" fill="var(--icon-color)"/>
    <path d="M312 36L320 37V38L326 40L336 50L340 60H341L342 67H343L344 86H343L342 97H341L340 103H339L335 113L333 114L331 119L323 127L318 129L317 131H315L313 133H310V134H307V135H292V134H288V133L282 131L281 129H279L273 123V121L271 120V118H270V116H269V114L266 110V107H265L264 95H263V86H264V79H265L267 68H268V66L270 64V61L272 60L273 56L275 55V53L285 43H287L291 39H294V38L299 37V36H304V35H312V36ZM304 49H300V50L296 51L295 53H293L286 60V62L284 63V65L282 66V68L280 70L278 80H277V85H276V97H277V102H278L279 108H280L281 112L283 113V115L286 118H288L289 120L293 121V122H306V121L312 119L313 117H315L321 111L323 106L325 105V103L327 101V98L329 96L330 87H331V72H330V68H329V65H328V62H327L326 58L319 51H317L315 49L304 48V49Z" fill="var(--icon-color)"/>
    <path d="M141 109V110L149 113L150 115H152L155 119H157L162 124V126L166 129V131L168 132V134H169V136H170V138H171V140L174 144V147H175V151H176V155H177V174H176L175 181H174L171 189L167 192V194H165L162 198H160L156 201H153V202H148V203L134 202V201L128 200V199L120 196L119 194H117L104 181V179L100 175V173L97 169V166L95 164V161H94L93 151H92V138H93L94 129H95L98 121L108 111H110V110H112L114 108H117V107H124V106L141 109ZM124 120H119V121L115 122L114 124H112L111 127L107 131V134H106V137H105V152H106L108 162H109L112 170L114 171V173L120 178V180H122L128 186H130L132 188H135V189H139V190L151 189V188L155 187L161 181L163 173H164L165 163H164V156H163L162 149H161L160 144L158 143L157 139L155 138V136L144 125H142V124H140L136 121H133V120L124 119V120Z" fill="var(--icon-color)"/>
    <path d="M398 108V109L404 111L414 121V123H415V125L418 129L419 138H420V151H419L418 161H417L415 169H414L412 175L410 176V178L408 179V181L395 194H393L392 196H390V197H388V198H386L382 201H378V202H373V203L359 202V201H356V200L350 198L348 195H346L344 193V191L341 189V187L339 186V184H338V181H337V178H336V175H335L336 150H337L338 144H339L340 139L343 136L344 132L346 131V129L349 127V125L356 118H358L360 115H362L363 113H365V112H367V111H369L371 109H374V108H377V107H385V106L398 108ZM384 120H379V121L373 122L372 124L368 125L365 129H363L360 132V134L356 137L355 141L353 142V144L351 146V149H350V152H349V155H348L347 167H348L349 177H350L351 181L357 187H359L361 189H364V190L377 189V188L385 185L386 183H388L397 174V172L401 168V166L404 162L405 156H406L407 138H406V134H405L403 128L401 127L400 124H398L397 122H395L393 120L384 119V120Z" fill="var(--icon-color)"/>
    <path d="M262 147H269V148H274V149L280 150V151L288 154L292 158H294L298 163H300L304 167V169L310 174V176L313 178V180L316 182V184L318 185V187L320 188V190L322 191V193L324 194L326 199L329 201V203L332 205V207L335 209V211L339 214V216L342 218V220L344 221V223L348 227L349 231L351 232V234H352V236L355 240V243L357 245L358 252H359L360 275H359L358 283H357L356 288L353 291L352 295L349 297V299L344 304H342L338 308H336L332 311L326 312V313L314 314V315H292V314H280V313H269V312H243V313L220 314V315H198V314L186 313V312L180 311V310L172 307L170 304H168L162 298V296L158 292V290L156 288V285L154 283V280H153V276H152V256H153V252H154V248H155V245L157 243V240H158L161 232L163 231L164 227L166 226V224L168 223L170 218L173 216V214L180 207V205L183 203V201L185 200V198L187 197V195L189 194V192L191 191L193 186L196 184L198 179L202 176V174L207 170V168L213 162H215L218 158H220L221 156H223L224 154H226V153H228L232 150H235V149H238V148H243V147H250V146H262V147ZM250 160H243V161L237 162V163L229 166L227 169H225L213 181V183L210 185V187L204 193V195L202 196V198L200 199V201L198 202L196 207L191 212V214L187 217V219L183 222L181 227L178 229V231L174 235V237H173V239H172V241H171V243L168 247V250H167V253H166V256H165V264H164L165 275H166V278H167V281H168L169 285L174 290V292L177 293L179 296H181L185 299H188V300H191V301H197V302H222V301H233V300H244V299H267V300L290 301V302H315V301H321V300H324V299H327V298L333 296L336 292H338V290L343 285V283L345 281V278H346V274H347V257H346L344 247H343L338 235L336 234L334 229L331 227V225L328 223V221L325 219V217L318 210V208L316 207V205L314 204V202L312 201V199L310 198L308 193L302 187V185L298 182V180L287 169H285L283 166H281V165H279L275 162L269 161V160L250 159V160Z" fill="var(--icon-color)"/>
</svg>
