<svg width="600" height="600" viewBox="0 0 600 600" fill="none" xmlns="http://www.w3.org/2000/svg">
<path d="M382.566 315.5C446.066 381.5 587.066 372.5 578.566 137.5C382.566 99.5 323.566 250.5 382.566 315.5Z" stroke="var(--icon-color)" stroke-width="17" stroke-linecap="round" stroke-linejoin="round"/>
<path d="M247.847 283.015C174.512 359.404 11.6744 348.987 21.4909 76.9972C247.847 33.0162 315.985 207.784 247.847 283.015Z" stroke="var(--icon-color)" stroke-width="17" stroke-linecap="round" stroke-linejoin="round"/>
<path d="M321.12 530C313.598 454.623 335.812 288.894 484.842 229M321.123 530C313.601 454.623 335.816 288.894 484.846 229" stroke="var(--icon-color)" stroke-width="17" stroke-linecap="round" stroke-linejoin="round"/>
<path d="M318.599 530C327.26 443.103 301.68 252.048 130.07 183M318.595 530C327.256 443.103 301.676 252.048 130.066 183" stroke="var(--icon-color)" stroke-width="17" stroke-linecap="round" stroke-linejoin="round"/>
</svg>
