<svg width="762" height="782" viewBox="0 0 762 782" fill="none" xmlns="http://www.w3.org/2000/svg">
<path d="M144 139H155V140L160 141L161 143H164V144L168 145L169 147H172L176 152L179 153L180 156L183 157L184 160H186L188 166L191 169L192 174L195 176L196 184L199 188L200 197L203 200L205 210H215V211H324V212H370V213H405V214H482V215H609V216H612L616 219H619L621 222H623V224H624V238H623V242H621L619 257H618L617 262H616V270H615L614 277L612 279L611 291H610V294L608 296L607 308H606V311H605L604 317H603V325H602V328L600 330L599 341H598V345H597L596 350H595L594 361L591 364L590 371L587 373L586 379L582 382L581 385H579L578 389L570 397H567L564 401H561L559 404H557L555 406H552L550 408L536 410V411L531 412V413L503 414V415H497V416H492V417L464 418V419H458V420H453V421H444V422H426V423H418V424L407 425V426H389V427H379V428L368 429V430L340 431V432H335V433H330V434L302 435V436H296V437H291V438L272 439L270 444L267 447V456H266L267 473L270 476V479L279 488L284 489L285 491H288V492H295V493H539L543 496H546L549 499V502H550V505H551L552 508L550 509L548 516L543 518V519H539V520H292V519L278 518L277 516L269 514L267 511L263 510L260 506H258L253 501V499L249 497L248 493L245 491L244 485L241 483L240 472H239V469H238V466H237V458H238V451H239V448H240V442H241L242 436L244 435L245 428L247 427L248 422L245 419L244 410L241 407L240 398L237 395L236 386H235V384L232 380L231 371L228 368L227 359L224 356L223 347L220 343L219 335L216 331L215 323H214V320L212 319L211 311H210V308L208 307L206 296L203 292L202 284H201V282L199 280V277H198V271L195 268L194 259L191 256L190 248H189V245L186 241L185 232L182 229L181 220L178 217L177 208L174 205L173 196H172V194L169 190L168 183L165 181L164 176L161 175L159 173V171L153 169L151 166H145V165H97L94 162L89 161L88 158H86V156H85V146H86V144L89 143L90 140L96 139V138H144V139ZM217 238H215L216 239L217 249L220 252L221 261L224 264L225 273L228 277L229 285H230V288L232 289L233 297H234V300L237 304L238 312L241 316L242 325L245 328L246 337L249 340L250 349H251V352L254 355V361H255V364L258 367L259 376L262 380L263 388L266 392L267 400H268V403L270 404L272 412L281 411V410H285V409H295V408H313V407H320V406L333 405V404L360 403V402L371 401V400L399 399V398L410 397V396L438 395V394L449 393V392L477 391V390H483V389H488V388H497V387H515V386H523V385H527V384L543 382L544 380H546V379L550 378L552 375H554L556 373V371H558L560 369V367L563 365L564 359H565V357L568 353L569 342L572 338L573 326H574V323L576 321L577 309H578V306L580 305L581 293H582V290L584 288L585 277H586V273H587L588 268H589L590 256H591L592 251H593V244L592 243H568V242L374 241V240H320V239H293V238L217 237V238Z" fill="var(--icon-color)"/>
<path d="M262 550L275 551V552H278L280 555H283L287 559L291 560L292 563L296 564L300 568V570L304 574L305 578L309 581V584H310V586L312 588V591H313L314 611H313V621H312V624L309 628V631L305 634V637L301 640L300 644L295 649L291 650V652L285 654L283 657H281V658H279L275 661H271V662H261V663L243 662V661H239L236 658H233V657L229 656V654H227L223 650L219 649L215 645L214 641L211 640V637L207 634L206 629L203 627L201 613H200L199 604H200V599H201V595H202L203 585L206 583L207 578L211 575L212 571H214L215 567L218 564L222 563L229 556H231V555H233V554H235L239 551H246V550H252V549H262V550ZM250 578H245L244 580L239 582L236 586H234L233 590L230 592L229 601H228L229 618L233 622L234 626L238 628V630L244 632L247 635H267L270 632L274 631L282 623L283 619L286 616V609H287L286 596L284 595L282 589L277 585V583L271 581L269 578L250 577V578Z" fill="var(--icon-color)"/>
<path d="M499 550H506V551L515 552L516 554L522 556L524 559L528 560L530 563L534 564L535 567L537 568V570L540 572L541 576L544 578L545 582L548 584L549 593H550L551 600H552V612H551V616H550V619H549V624H548V627L545 630L544 634L541 636L540 640L537 642V644L532 649L528 650L527 653H524L521 657L516 658L513 661H508V662H498V663L480 662V661L474 660L473 658L468 657L466 654L462 653L460 650L456 649L454 647V645L451 644L450 640L446 636V633L443 632L441 624L439 623V620H438V605H437L438 604V592H439V589L441 588L443 580H445L447 574L451 571V568H453L454 565L459 563L461 560L465 559L468 555H471V554H473L474 552H477V551H483V550H489V549H499V550ZM487 578H482L480 581L476 582L470 588V590L468 591V594L465 597V604H464V606H465V615L468 618L469 623L477 631H480L482 634H485V635H504L507 632L513 630L518 625L519 621L522 618V613H523V609H524L522 594H521V591L518 590V587L516 585H514L513 582H510L506 578L487 577V578Z" fill="var(--icon-color)"/>
</svg>
