<svg width="512" height="501" viewBox="0 0 512 501" fill="none" xmlns="http://www.w3.org/2000/svg">
<path d="M55 2V3L61 4L63 6H65L66 8H68L70 11H72L74 13V15L79 20L80 24H81V27H82V31H83V47H82L81 54H80L79 58L77 59V61L65 72H63L61 74H58V75L47 76V77L37 76V75L31 74V73L25 71L23 68H21L17 64V62L14 60V58H13L11 52H10L9 43H8L9 29H10V26H11L14 18L16 17V15L22 9H24L25 7L29 6L33 3L43 2V1L55 2ZM42 19L36 20L35 22H33L29 26V28L26 31V35H25V43H26L27 49L29 50V52L33 56H35L39 59H43V60L53 59V58L57 57L59 54H61V52L65 48L66 41H67L66 32H65L64 28L62 27V25L60 23H58L57 21H55L53 19H49V18H42V19Z" fill="var(--icon-color)"/>
<path d="M429 2V3H435V4L443 5V6H446L448 8H451L453 10L458 11L459 13L465 15L466 17L471 19L473 22H475L489 36V38L492 40V42L496 46L497 50L499 51V53L501 55V58H502V60L504 62V65H505L507 76H508V81H509V90H510V493H509V496L506 499H503V500L497 499L493 494V88H492L490 73H489V70L487 68V65H486L483 57L481 56V54L479 53L477 48L463 34H461L457 30H455L454 28H452V27H450V26H448L446 24H443V23H440V22H437V21H434V20H429V19L407 18V19L392 20V21H388V22H384V23L372 26V27H370V28L358 33V34H356L355 36L350 38L348 41H346L344 44H342L320 66L322 69H324L330 75H332L336 80H338L341 84H343L359 67H361L364 63H366L367 61H369L370 59L374 58L377 55H380V54H382L384 52H387V51H390V50H393V49H398V48L423 47V48H428V49L434 50V51L440 53L441 55H443L444 57H446L454 65V67L458 71V73L461 77L462 83H463V87H464V495L462 496V498L457 499V500L450 498L449 495H448V491H447V88H446V85H445L442 77L434 69H432V68H430V67H428L426 65H422V64L399 65V66H395V67H392L390 69H387V70L381 72L380 74H378L377 76H375L354 96V99L358 102V104L360 105V107L364 111L365 115L367 116V118H368V120H369V122H370V124H371V126L374 130V133L376 135L378 143H379V147H380V150H381L383 163H384V170H385L386 196H385L384 214H383V219H382L381 227H380V230H379V234H378V237H377L376 242L374 244V247H373V249H372V251H371V253H370V255L367 259L370 266H371V268H372V272H373V287H372L371 294H370L369 298L367 299V301L360 308H358L357 310H355L351 313L344 314V315H332V314L325 313V312L319 310L318 308H316L313 304H311L308 300H306L303 296H301L298 292H296L288 284H286L283 280H281L278 276H276L273 272H271L268 268H266L263 264H261L253 256H251L248 252H246L243 248H241L238 244H236L233 240H231L228 236H226L223 232H221L218 228H216L213 224H211L208 220H206L203 216H201L198 212H196L193 208H191L188 204H186L183 200H181L178 196H176L173 192H171L168 188H166L163 184H161L158 180H156L153 176H151L148 172H146L143 168H141L138 164H136L133 160H131L128 156H126L123 152H121L113 144H111L108 140H106L104 138V136L101 134V132L99 131V129L97 127V124H96V120H95V107H96L97 100H98L100 94L103 92V90L107 86H109L110 84H112L115 81L125 79V78H135V79H140V80L144 81L148 76H150L153 72H155L156 70H158L159 68H161L165 64L171 62L172 60H174L178 57H181L185 54H188L190 52H193V51H196V50H199V49H203V48H207V47H211V46L243 43V44H258V45H265V46L275 47V48H279V49L294 53L296 55H299V56L305 58L329 33H331L335 28H337L339 25H341L345 21L349 20L350 18H352V17H354V16L362 13V12H365L367 10L375 8V7H379V6L391 4V3L408 2V1L429 2ZM235 61L217 62V63H212V64H208V65H205V66L198 67L196 69H193L191 71H188V72L178 76L177 78L173 79L172 81H170L169 83L164 85L162 88H160L158 91L161 92L164 96H166L169 100H171L177 106V114L173 118H165L159 112H157L154 108H152L149 104H147L144 100H142L141 98H139L137 96L126 95V96H123V97L119 98L115 102V104H114V106L112 108L113 121H114V123L116 124V126L118 128H120L123 132H125L128 136H130L133 140H135L138 144H140L143 148H145L148 152H150L153 156H155L158 160H160L163 164H165L168 168H170L173 172H175L178 176H180L183 180H185L188 184H190L193 188H195L198 192H200L203 196H205L208 200H210L213 204H215L218 208H220L223 212H225L228 216H230L233 220H235L238 224H240L243 228H245L248 232H250L253 236H255L258 240H260L263 244H265L273 252H275L278 256H280L283 260H285L288 264H290L293 268H295L298 272H300L303 276H305L308 280H310L313 284H315L323 292H325L327 295H329L333 298L346 297L354 290V288L356 286V274H355V271L353 270V268L349 264H347L344 260H342L339 256H337L334 252H332L329 248H327L324 244H322L319 240H317L314 236H312L309 232H307L304 228H302L299 224H297L294 220H292L289 216H287L284 212H282L279 208H277L274 204H272L269 200H267L264 196H262L259 192H257L254 188H252L249 184H247L244 180H242L239 176H237L234 172H232L229 168H227L224 164H222L219 160H217L214 156H212L209 152H207L204 148H202L199 144H197L194 140H192L189 136H187L184 132V125L186 124V122H188L190 120L197 121L199 124H201L204 128H206L209 132H211L214 136H216L219 140H221L224 144H226L229 148H231L234 152H236L239 156H241L244 160H246L249 164H251L254 168H256L259 172H261L264 176H266L269 180H271L274 184H276L279 188H281L284 192H286L289 196H291L294 200H296L299 204H301L304 208H306L309 212H311L314 216H316L319 220H321L324 224H326L329 228H331L334 232H336L339 236H341L344 240H346L353 247H355V245H356V243L359 239V236L361 234V231H362V228H363V225H364V222H365L367 207H368V197H369L368 170H367L366 159H365V155H364L360 140H359V138H358V136H357L352 124H351V122L349 121V119L347 118L345 113L342 111V109L337 105V103L326 92H324L320 87H318L316 84H314L310 80L306 79L305 77H303V76H301V75H299V74H297V73H295V72H293L291 70H288L286 68H283V67H280V66H277V65L264 63V62H258V61L235 60V61Z" fill="var(--icon-color)"/>
<path fill-rule="evenodd" clip-rule="evenodd" d="M108 160L115 161L119 166V172L114 177H112V178H110V179H108V180H106V181H104V182H102V183H100V184H98V185H96V186H94V187H92V188H90V189H88V190H86V191H84V192H82V193H80V194H78V195H76V196H74V197H72V198H70V199H68L64 202H62V203H60V204H58L57 206L47 210V211L35 216V217L25 221L21 224L15 225V224H12L9 221L8 214L13 208L23 204L27 201H29V200L39 196V195H41V194H43V193L53 189V188L63 184V183H65V182H67V181H69L70 179H72V178H74V177H76V176H78V175H80V174H82V173H84V172H86V171H88V170H90V169H92V168H94V167L108 161V160Z" fill="var(--icon-color)"/>
<path fill-rule="evenodd" clip-rule="evenodd" d="M146 196H153L158 201V207L153 213H151L150 215H148L147 217H145L144 219H142L141 221H139L138 223H136L135 225L130 227L128 230H126L125 232H123L122 234H120L119 236H117L116 238H114L113 240H111L110 242L105 244L104 246H102L100 249H98L97 251H95L94 253H92L91 255H89L88 257H86L85 259H83L82 261H80L79 263L74 265L73 267H71L69 269H65V268L60 266L59 257H60V255L62 253L67 251L69 248H71L72 246H74L75 244H77L78 242H80L81 240H83L84 238H86L87 236L92 234L94 231H96L97 229H99L100 227H102L103 225H105L106 223H108L109 221H111L112 219L117 217L118 215H120L122 212H124L125 210H127L128 208H130L131 206H133L134 204H136L137 202H139L140 200H142L146 196Z" fill="var(--icon-color)"/>
<path fill-rule="evenodd" clip-rule="evenodd" d="M187 226H194L195 228H197L198 233H199V236H198L197 240L189 248V250L184 254V256L179 260V262L170 271V273L165 277V279L156 288V290L151 294V296L142 305V307L137 311V313L132 317V319L123 328V330L119 333L110 332L108 330V328H107L108 320L116 312V310L120 307V305L125 301V299L130 295V293L135 289V287L144 278V276L149 272V270L158 261V259L163 255V253L172 244V242L177 238V236L182 232V230L187 226Z" fill="var(--icon-color)"/>
<path fill-rule="evenodd" clip-rule="evenodd" d="M224 257H230L234 260L235 269L233 271V274L230 278V281L227 285L225 293L222 297V300L219 304V307L216 311V314L213 318V321L210 325V328H209L207 334L204 337H201V338L195 337L191 332L192 324L195 320V317L198 313V310L201 306V303L204 299V296L207 292V289L210 285V282H211V280L213 278V275L216 271V268L219 264V261L224 257Z" fill="var(--icon-color)"/>
<path fill-rule="evenodd" clip-rule="evenodd" d="M268 291L276 293V295L278 296V304H277V307H276V311H275V314H274V318H273V321H272V325H271V328H270V332H269V335H268V339H267V342H266V346H265V349H264V353H263V356H262L261 364H260V367H259V371H258V374H257V378H256V381H255V385H254V388H253V392H252V395H251V399H250V402H249V406H248V409H247V413H246V416H245L243 426L239 431L233 432V431H230L227 428L226 422H227L228 414H229L230 407H231V404H232V400H233V397H234V393H235V390H236V386H237V383H238V379H239V376H240V372H241V369H242V365H243V362H244V358H245V355H246V351H247V348H248V344H249V341H250V337H251V334H252V330H253L255 319H256V316H257L258 309H259V305H260V302H261V298H262L263 294L268 292V291Z" fill="var(--icon-color)"/>
<path d="M43 288L53 289V290L59 292L60 294H62L65 297V299L68 301V303L70 305V308H71V312H72L71 326H70L69 331L67 332V334L60 341H58L55 344L49 345V346H36V345L30 344L27 341H25L18 334V332H17V330H16V328L14 326V321H13L14 308H15L16 303L20 299V297L23 294H25L26 292L30 291L32 289L42 288V287L43 288ZM41 305H37L36 307H34L32 309L31 314H30V320H31V323L36 328H38V329H47L54 323L55 313H54L53 309L51 307H49L48 305L41 304V305Z" fill="var(--icon-color)"/>
<path fill-rule="evenodd" clip-rule="evenodd" d="M184 350H191L195 354L196 359H195V363L192 367V370L189 374V377H188L186 383L183 386H175V385L172 384V382L170 380V376H171V373L174 369V366L177 362V359H178L180 353L184 350Z" fill="var(--icon-color)"/>
<path d="M392 345L401 346V347L409 350L411 353H413L417 357V359L420 361V363H421V365L424 369L425 378H426L425 392H424V395H423L420 403L418 404V406L412 412L407 414L406 416L398 418V419H393V420H382V419L372 417V416L368 415L367 413H365L357 405V403L355 402V400L353 398V395H352V392H351V388H350L351 372H352L353 366L356 363V361L358 360V358L364 352H366L367 350H369V349H371L375 346L384 345V344H392V345ZM384 362L378 363L377 365H375L370 370V372L368 374V377H367V387H368V390H369L370 394L376 400H378L380 402H383V403H393V402H396V401L400 400L405 395V393L407 392V389H408V386H409V378H408L407 372L405 371V369L401 365H399L398 363L392 362V361H384V362Z" fill="var(--icon-color)"/>
<path fill-rule="evenodd" clip-rule="evenodd" d="M51 365L73 366V367H78V368H82V369H86V370H89L91 372H94V373L106 378L110 382H112L114 385H116L130 399V401L133 403V405L137 409V411H138V413H139V415H140V417H141V419L144 423H146V424H166V425L175 426V427L181 428V429L189 432L193 436H195L207 448V450L210 452V454H211V456H212V458L215 462V465H216L217 471H218V476H217L216 480H214L213 482H206L205 480H203V478L201 476V473H200V470H199L198 465L196 464L195 460L191 457V455L188 452H186L181 447H179V446H177L173 443L166 442V441H144V440L138 439L135 436H133L130 433V431L128 430L124 420L122 419V417L120 416L118 411L112 406V404H110L104 397H102L101 395H99L98 393L94 392L91 389H88L86 387H83V386H80V385H77V384H72V383L50 382V383H44V384H39V385L30 387V388L25 389L22 392L18 393L17 395L12 396V397L6 396L3 393L2 386L4 384V382H6L10 378L18 375L22 372L30 370V369L43 367V366H51V365Z" fill="var(--icon-color)"/>
<path d="M295 425H299V426L304 427L305 429H307L314 436V438L317 441L318 447H319V459H318V463H317L314 471L308 477H306L305 479H303L301 481H298V482H293V483L282 482V481L276 480L271 475H269L268 472L265 470L263 464H262L261 456H260L261 445H262V442H263L264 438L266 437V435L271 430H273L274 428H276L278 426H281V425H284V424H295V425ZM286 442L282 443L279 446L278 451H277V456H278V459L280 460V462L283 463L284 465L293 466L301 460L302 449L299 446V444H297L296 442L286 441V442Z" fill="var(--icon-color)"/>
</svg>
