<svg width="512" height="512" viewBox="0 0 512 512" fill="none" xmlns="http://www.w3.org/2000/svg">
<path fill-rule="evenodd" clip-rule="evenodd" d="M171 32C164.925 32 160 36.9248 160 43C160 68 160 128 160 128C160 128 334 129 408 129C420.703 129 431 139.297 431 152C431 184 432 240 432 240C432 240 457.5 240 469 240C474.001 240 479 237.001 479 232C479 182 480 104.5 480 43C480 37.9988 477.001 33 472 33C398 33 244 32 171 32Z" fill="var(--icon-color)"/>
<path fill-rule="evenodd" clip-rule="evenodd" d="M107 144C100.925 144 96.0002 148.925 96.0002 155C95.9998 188.5 96.0002 256 96.0002 256C96.0002 256 270.5 257 344 257C356.703 257 367 267.297 367 280C367 304.5 368 352 368 352C368 352 392 352 405 352C410.001 352 415 349.001 415 344C415 296 416 209.5 416 155C416 149.999 413.001 145 408 145C334 145 191.5 144 107 144Z" fill="var(--icon-color)"/>
<path fill-rule="evenodd" clip-rule="evenodd" d="M43.0001 272C36.925 272 32.0001 276.925 32.0001 283C32.0001 336 31.9998 410.5 32.0001 469C32.0002 474.001 34.999 479 40.0001 479C110.5 479 245.5 480 341 480C346.001 480 351 477.001 351 472C351 420.5 352 342 352 283C352 277.999 349.001 273 344 273C267.5 273 127 272 43.0001 272Z" fill="var(--icon-color)"/>
</svg>
