<svg width="512" height="512" viewBox="0 0 512 512" fill="none" xmlns="http://www.w3.org/2000/svg">
<path d="M446 38H453V39H456V40L462 42L464 45H466L467 48L470 50V52L473 56V59H474V66H475V455H506L512 460V469L510 470V472H508L507 474H502V475H10V474H5L4 472H2V470L0 469V460L6 455H37V332H38V324H39V321H40L41 317L43 316V314L49 308H51V307H53L57 304H61V303H148V304H151V305H154V306L158 307L160 310H162L164 312V314L167 316V318L170 322V326H171V455H189V195H190V191H191V188H192L194 182L201 175H203L207 172H210V171H214V170H298V171L305 172V173L309 174L310 176H312L318 182V184L321 188L322 195H323V455H341V61H342V57H343L344 52L346 51V49L352 43H354L355 41H357L359 39L369 38V37H446V38ZM59 326V328L57 330V455H151V328L146 323H63L59 326ZM209 196V455H303V196L297 190H215L209 196ZM368 58H365L361 63V455H455V65H454V62L450 58H447V57H368V58Z" fill="var(--icon-color)"/>
</svg>
