<svg width="811" height="804" viewBox="0 0 811 804" fill="none" xmlns="http://www.w3.org/2000/svg">
<path d="M524.667 69.0361L559.886 70.0732V71.1094H565.065V72.1455L572.316 73.1826V74.2188L588.89 75.2559V76.292H593.033V77.3281L601.32 79.4014V80.4375H606.499V81.4746L613.75 82.5107L614.786 84.584L619.965 85.6201V86.6572L628.252 87.6934L632.396 91.8389L638.61 92.876V93.9121L642.754 94.9492L643.79 97.0215L652.077 100.131L654.148 103.24L660.363 105.313L663.471 109.46L667.614 110.496L669.687 114.642L674.865 116.715V118.788L677.973 119.824L687.296 129.153V131.226L692.475 135.372L693.511 138.481L696.618 139.518L697.654 143.664L701.798 146.773L703.869 152.992L706.977 155.065V157.139L709.049 159.211V162.32L711.12 163.357V165.43L714.228 168.54L715.264 174.759L719.407 178.904L721.479 190.306H722.515V192.379L724.586 193.415V196.524H725.622L726.658 206.89H727.694V209.999L729.766 212.072L730.802 219.328H731.837L732.873 234.875H733.909V239.021H734.945V243.167H735.98V247.312H737.017V260.787H738.053V281.517H739.088V521.983H738.053L737.017 556.188H735.98V560.333H734.945V564.479H733.909V568.625H732.873L731.837 584.172H730.802V588.318H729.766V591.428H728.729L727.694 596.61H726.658L725.622 606.976H724.586V610.085L721.479 613.194L719.407 623.559H718.371L717.335 627.705L715.264 628.741L714.228 634.96L711.12 638.07V640.143L709.049 641.18V644.289H708.013L706.977 648.435L703.869 650.508L701.798 656.727L697.654 659.836L695.582 665.019H693.511L692.475 668.128L687.296 672.274V674.347L677.973 683.676H675.901L671.758 688.858H669.687L668.65 691.968L663.471 694.04L660.363 698.187L654.148 700.26L652.077 703.369L643.79 706.479L642.754 708.551H640.683L638.61 710.624L632.396 711.661L631.359 713.733H629.288L627.216 715.807L616.857 717.88V718.916H614.786L613.75 720.989H610.643V722.025L601.32 723.062V724.099H598.212V725.135H595.104V726.172L588.89 727.208V728.244L572.316 729.281V730.317H568.173V731.354H564.029V732.391H559.886V733.427H546.42V734.464H524.667V735.5H286.421V734.464L251.202 733.427V732.391H247.059V731.354H242.915V730.317H238.771V729.281L219.091 727.208V726.172H217.019L214.947 724.099H211.84V723.062L200.445 722.025V720.989H197.338L194.23 717.88L182.836 715.807L178.692 711.661L172.478 710.624L168.334 706.479L159.011 703.369L156.939 700.26L150.725 698.187L147.617 694.04L142.438 691.968V689.895L139.33 688.858L135.187 683.676H133.115L123.792 674.347V672.274L118.613 668.128V666.055L114.47 663.982L113.434 659.836L109.29 656.727L107.219 650.508L104.111 648.435L99.9678 638.07L96.8604 634.96L95.8242 628.741L91.6807 624.596L90.6445 616.304H89.6094V613.194L86.502 610.085L83.3936 593.501H82.3584L81.3223 588.318H80.2861L78.2148 568.625H77.1787V564.479H76.1426L75.1074 556.188H74.0713L73.0352 521.983H72V281.517H73.0352L74.0713 247.312H75.1074V242.131H76.1426V239.021H77.1787L78.2148 227.619H79.251V219.328H80.2861L81.3223 212.072L83.3936 209.999L85.4658 196.524H86.502L87.5371 191.343L89.6094 190.306L91.6807 178.904L95.8242 174.759L96.8604 168.54H97.8955L98.9316 164.394L101.003 163.357V161.284L103.075 159.211V156.102L107.219 152.992L109.29 146.773L113.434 143.664L114.47 139.518L116.541 137.445H118.613L120.685 132.263L123.792 131.226V129.153L133.115 119.824H135.187L136.223 116.715L141.401 114.642V112.569L143.474 110.496L147.617 109.46L150.725 105.313L156.939 103.24L159.011 100.131H161.083L163.154 98.0586H166.262L167.298 95.9854H169.37L172.478 92.876L178.692 91.8389L182.836 87.6934L194.23 85.6201L195.266 83.5469L200.445 82.5107V81.4746L211.84 80.4375V79.4014H214.947L219.091 76.292L238.771 74.2188V73.1826H242.915V72.1455L251.202 71.1094V70.0732L286.421 69.0361V68H524.667V69.0361ZM298.852 115.679L256.381 116.715V117.752H250.166V118.788L236.7 120.861V121.897L224.27 122.934V123.971H221.162L217.019 127.08L204.589 129.153L202.517 132.263L193.194 134.335L189.051 138.481L180.764 141.591L178.692 144.7L174.549 145.736L170.405 150.919H168.334L166.262 152.992V155.065L163.154 156.102L154.868 164.394V166.467L149.688 170.612V172.686L145.545 176.831L142.438 185.123L138.294 189.27L137.258 196.524L133.115 200.671L131.043 213.108H130.007V215.182L127.936 217.255V220.364H126.899L125.864 232.802H124.828V237.984H123.792V242.131H122.756V246.276H121.721V252.495H120.685L119.648 292.919H118.613V510.581H119.648V537.53H120.685V551.005H121.721V557.224H122.756L124.828 570.698H125.864L126.899 583.136H127.936V586.245L131.043 590.392L132.079 599.72H133.115L134.15 603.865L136.223 604.902L138.294 614.23L142.438 618.377L144.509 624.596L148.652 628.741L149.688 632.888L154.868 637.033V639.106L163.154 647.398H165.227L168.334 652.581H170.405L174.549 657.764L180.764 659.836L182.836 662.945L191.122 666.055L192.158 668.128H194.23L196.302 670.201H200.445V671.237H202.517L203.553 673.311H205.624L207.696 675.384L217.019 676.42V677.456H220.126L221.162 679.529H224.27V680.566L242.915 682.639V683.676H247.059V684.712H250.166V685.748H256.381V686.785L299.887 687.821V688.858H511.201V687.821H541.24V686.785H554.707V685.748H560.922V684.712L568.173 683.676V682.639L586.818 680.566V679.529H589.926L590.961 677.456L605.463 674.347L608.571 671.237L616.857 669.165L619.965 666.055L628.252 662.945L630.324 659.836L636.539 657.764L640.683 652.581H642.754L656.22 639.106V637.033L661.399 632.888L663.471 626.669L666.578 624.596L669.687 616.304L671.758 615.267V613.194L673.829 611.121V606.976L677.973 601.793L680.045 590.392H681.08V587.282L683.152 586.245V583.136H684.188L686.26 564.479H687.296V560.333H688.331V557.224H689.367V551.005H690.403L691.439 508.509H692.475V294.991H691.439V265.97H690.403V252.495H689.367V246.276H688.331L687.296 239.021H686.26L684.188 220.364H683.152V217.255L681.08 216.218V213.108H680.045L679.009 203.78H677.973L676.938 199.635L674.865 198.598L673.829 192.379H672.794L671.758 188.233L669.687 187.196L666.578 178.904L663.471 176.831L661.399 170.612L656.22 166.467V164.394L642.754 150.919H640.683L636.539 145.736L632.396 144.7L628.252 140.555L619.965 137.445L617.894 134.335L610.643 133.299V132.263H608.571L607.535 130.189H605.463L603.392 128.116L594.069 127.08V126.044H591.997L589.926 123.971H586.818V122.934L574.388 121.897V120.861H569.208V119.824H565.065V118.788H560.922V117.752L541.24 116.715V115.679H512.236V114.642H298.852V115.679Z" fill="var(--icon-color)"/>
<path fill-rule="evenodd" clip-rule="evenodd" d="M319.797 235.25H328.103L330.179 237.312L336.409 238.344L344.715 246.594V248.656L346.791 250.719L347.829 260H346.791V266.188L344.715 267.219L341.6 274.438L265.808 348.688L258.54 349.719V350.75H250.234V349.719L241.928 348.688L238.813 344.562H236.737L213.895 321.875L211.819 316.719L208.704 314.656V311.562H207.666V298.156H208.704L209.742 293L212.857 290.938V288.875L215.972 285.781L224.278 283.719L226.354 281.656H234.66L236.737 283.719L245.043 285.781L250.234 291.969H257.502L260.617 288.875V286.812L263.731 285.781L266.846 282.688V280.625H268.923L273.076 276.5V274.438H275.152L278.267 271.344V269.281H280.343L284.496 265.156V263.094H286.573L289.688 260V257.938L292.802 256.906L295.917 253.812V251.75H297.994L302.147 247.625V245.562H304.223L309.414 239.375L317.72 237.312L319.797 235.25Z" fill="var(--icon-color)"/>
<path fill-rule="evenodd" clip-rule="evenodd" d="M413.971 280.25H583.752V281.283H585.823L589.964 284.383L595.14 285.417L597.21 287.483L598.246 291.617L601.351 293.683V295.75L603.422 297.817V311.25L599.281 315.383V317.45L597.21 318.483L596.175 321.583H594.105L592.034 324.683L585.823 325.717V326.75H411.9V325.717L405.689 324.683L402.583 320.55H400.512L398.442 315.383L395.336 313.317V311.25H394.301V296.783H395.336V293.683L399.477 290.583V288.517L402.583 285.417H404.653V284.383H406.724L410.865 281.283H413.971V280.25Z" fill="var(--icon-color)"/>
<path fill-rule="evenodd" clip-rule="evenodd" d="M315.644 453.5H332.256V454.538H335.37L338.485 458.69L341.6 459.728V461.804L343.676 462.842V464.917L346.791 468.031V473.221H347.829L346.791 483.6L343.676 486.714V488.79L341.6 489.828V491.904L268.923 564.56H266.846L264.77 566.636H261.655L257.502 569.75H250.234L248.158 567.674H245.043V566.636L238.813 564.56L212.857 538.612V536.536L208.704 532.384V529.27H207.666V514.739L210.781 511.625V509.549L213.895 507.473V505.397H215.972L219.087 501.246H222.201V500.208H238.813V501.246H241.928L245.043 505.397H247.119L250.234 509.549H257.502L307.338 458.69H309.414L312.529 454.538H315.644V453.5Z" fill="var(--icon-color)"/>
<path fill-rule="evenodd" clip-rule="evenodd" d="M412.935 499.25H584.787V500.283L592.034 501.317L598.246 507.517V509.583L601.351 511.65V513.717L603.422 514.75V528.183H602.387V531.283L599.281 533.35L598.246 537.483L594.105 541.617H590.999V542.65L585.823 543.683L583.752 545.75H412.935L411.9 543.683L403.618 541.617L394.301 529.217V514.75H395.336L396.371 510.617L399.477 508.55V506.483L403.618 502.35H405.689L407.759 500.283H412.935V499.25Z" fill="var(--icon-color)"/>
</svg>
