<svg width="454" height="454" viewBox="0 0 454 454" fill="none" xmlns="http://www.w3.org/2000/svg">
<path d="M279.071 26.6504H280.328V27.9521L287.239 29.2529L289.125 31.8564H290.382V32.5068L292.895 33.1572L294.151 35.1094H295.408L297.294 37.0615V38.3633L299.807 40.3154L300.436 42.918L302.32 44.2197V45.5215L303.577 46.8223V48.7744L304.834 50.0762V52.0283H305.462L306.091 62.4395H306.719V72.2002L307.348 72.8506H309.861V73.502H367.671V74.1523H370.185V74.8027H372.069V75.4541L377.725 76.1045L380.866 79.3584L383.38 80.0088L384.637 81.9609L387.778 83.2617V84.5635L390.292 86.5156L392.177 91.0703L394.062 92.3721V94.3242L395.947 96.9268L396.576 102.783H397.204L396.576 119.702L395.319 120.353V121.654L394.062 122.955V124.907L392.177 126.859L391.549 129.463L384.009 137.271H382.752L381.495 139.224H379.609V139.874L377.097 140.524L373.954 143.778L373.326 156.792H372.698V169.807H372.069V176.965H371.441L370.812 187.376H370.185L369.556 209.5H368.928V216.007H368.299L367.671 226.418H367.042L366.414 248.543H365.786V255.05H365.157L364.529 265.461H363.9L363.272 288.235H362.644V293.441H362.016V297.996H361.387V305.154H360.759L360.131 327.278H359.502V332.484H358.874V337.039H358.245V344.848H357.617L356.988 366.321H356.36L355.731 376.082H355.104L354.475 396.254H353.847V398.856H353.219L352.59 402.11H351.962L351.333 407.967L348.819 410.569L348.191 413.172L345.678 415.124L344.421 418.378L342.536 419.028L338.766 422.933H336.881L334.996 425.535L328.712 426.837L328.084 428.789H125.749L125.121 426.837L118.837 425.535L117.58 423.583L113.811 422.282L111.925 419.68H110.668L108.783 417.728V416.426L107.526 415.775V414.474L105.013 412.521L104.385 409.919L102.499 408.617L101.871 402.761H101.243V400.809H100.614L99.9863 397.555H99.3574L98.7295 378.034H98.1006V372.178H97.4727L96.8438 361.115H96.2158L95.5879 338.991H94.959V333.135H94.3311V328.58H93.7021L93.0742 307.757H92.4453V299.948H91.8174V294.743H91.1885V289.537H90.5605L89.3037 260.906H88.6758L88.0469 251.146H87.4189L86.79 229.021H86.1621V221.863H85.5332L84.9053 211.452H84.2764L83.6484 189.328H83.0205V182.82H82.3916L81.7637 172.409H81.1348V160.696H80.5068L79.8779 144.429L78.6211 143.778V142.477L76.7363 140.524H75.4795L74.2227 139.224H72.3379L67.3105 134.018H66.0537L63.541 131.415L62.2842 128.161L60.3984 126.859L59.1426 121.654L57.8857 121.003L57.2568 117.75H56.6289V111.243H56L56.6289 101.482H57.2568L57.8857 96.2764L59.1426 95.626V93.6738H59.7705L60.3984 91.0703L62.2842 89.7695L62.9121 87.166L65.4258 85.2139V83.9131L66.6826 82.6113H67.9395L69.1963 80.6592L71.71 80.0088L72.3379 78.707H73.5947L76.1084 76.1045L81.7637 75.4541V74.8027L85.5332 74.1523V73.502H143.972V72.8506H146.485L147.113 72.2002L147.742 54.6309H148.37V51.377H148.999V49.4248L150.256 48.124L150.884 44.8701L153.397 42.918L154.654 39.0137H155.911L156.539 37.0615L158.424 35.1094H159.681L162.823 31.8564L165.336 31.2051L166.593 29.2529L173.505 27.9521V26.6504H174.762V26H279.071V26.6504ZM103.128 146.381H102.499V151.587H103.128V158.094H103.756L104.385 168.505H105.013L105.642 190.629H106.27V196.485H106.898L107.526 208.198H108.155L108.783 230.322H109.411V235.528H110.04V240.083H110.668L111.925 269.365H112.554L113.182 279.126H113.811L114.438 300.6H115.066V307.757H115.695V312.963H116.323V318.168H116.952L118.209 346.8H118.837L119.466 357.211H120.094L120.723 379.335H121.351V385.842H121.979V390.397H122.607V394.302H123.235L123.864 399.507L127.634 403.411L130.776 404.062V404.713H133.918V405.363H319.915V404.713H323.057V404.062L326.198 403.411L329.969 399.507L330.597 393.65H331.226V389.096H331.854V384.541H332.482L333.739 355.259H334.367V350.054H334.996V345.498H335.624L336.252 324.024H336.881V316.216H337.509L338.138 306.456H338.766L339.395 284.331H340.022V277.174H340.651L341.279 267.413H341.908L342.536 245.289H343.164V238.782H343.793L344.421 227.72H345.05L345.678 205.596H346.307V199.739H346.935V195.185H347.563L348.819 166.553H349.448V161.348H350.076V156.792H350.705V148.983H351.333L350.705 145.079L350.076 144.429H103.756L103.128 146.381ZM90.5605 97.5781H87.4189V98.2285L83.6484 98.8789L81.1348 101.482V102.783H80.5068V104.085L78.6211 106.688V110.592H79.25V112.544H79.8779L81.1348 116.448L83.0205 117.099L83.6484 118.4H84.9053L85.5332 119.702H87.4189V120.353H366.414V119.702H368.299L369.556 117.75L372.069 117.099V115.798H372.698V114.496L374.583 111.894V109.941H375.211L374.583 105.387L373.326 104.735L372.698 101.482L368.928 98.2285L363.272 97.5781V96.9268H90.5605V97.5781ZM179.16 50.7266H176.646V51.377L174.134 52.0283L172.877 53.3291V54.6309L171.62 55.2812V57.2334L170.363 57.8848V59.8369H169.735V72.2002L170.363 72.8506H173.505V73.502H280.328V72.8506H283.47L284.098 72.2002V61.1377H283.47V58.5352H282.841L281.584 54.6309L277.186 50.7266H274.044V50.0762H179.16V50.7266Z" fill="var(--icon-color)"/>
<path fill-rule="evenodd" clip-rule="evenodd" d="M155.389 168.009H161.686V168.659L164.204 169.31L165.463 171.261H166.723V172.562L168.612 173.863L169.241 177.766H169.871V184.921H170.5V191.425H171.13V197.93H171.76L172.389 227.2H173.019V236.957H173.649L174.278 250.617H174.908V262.975H175.537V279.887H176.167V288.994H176.797L177.426 302.653H178.056L178.686 332.574H179.315V341.03H179.945L180.574 355.34H181.204V374.203L179.315 375.504L178.056 378.757H176.797L174.278 381.358H171.76V382.009L166.093 381.358V380.708H164.834L164.204 379.407H162.945L162.315 378.106L160.426 377.456V375.504H159.797V373.553H159.167V371.602H158.537V368.349H157.908V360.544H157.278L156.649 330.623H156.019V322.817H155.389L154.76 307.857H154.13L153.5 278.586H152.871V270.781H152.241V264.927H151.612L150.352 226.55H149.723V219.395H149.093V212.89H148.463L147.834 184.921H147.204L147.834 175.164L150.352 172.562V171.261H151.612L152.241 169.96H153.5L155.389 168.009Z" fill="var(--icon-color)"/>
<path fill-rule="evenodd" clip-rule="evenodd" d="M224.046 168.009H230.362V168.659H232.257L233.52 170.611H234.783L236.046 171.912L236.678 174.513L237.941 175.164L238.573 181.668H239.204V368.349H238.573V372.902H237.941L236.046 378.106L232.888 379.407L231.625 381.358H229.099V382.009L222.783 381.358L220.257 378.757H218.994L217.73 377.456V375.504L216.467 374.854L215.836 370.951H215.204V178.416H215.836V176.465H216.467L217.73 172.562L219.625 170.611H220.888L222.151 168.659H224.046V168.009Z" fill="var(--icon-color)"/>
<path fill-rule="evenodd" clip-rule="evenodd" d="M291.723 168.009H298.649L300.537 169.96H301.797L305.574 173.863V175.164H306.204V197.93H305.574V210.288H304.945V218.094H304.315L303.686 233.705H303.056L302.426 262.975H301.797V269.48H301.167V275.984H300.537L299.278 315.012H298.649V321.516H298.019V328.021H297.389L296.13 367.048H295.5V370.951H294.871L293.612 376.805L287.945 381.358L282.278 382.009V381.358H279.76L279.13 380.057L275.982 378.757L275.352 376.805L273.463 375.504L272.834 370.951H272.204V365.747H272.834V352.088H273.463V344.933H274.093V339.079H274.723V329.322H275.352L275.982 300.051H276.612V293.547H277.241V287.042H277.871L278.5 259.073H279.13V248.015H279.76L280.389 235.006H281.019L281.649 205.735H282.278V195.978H282.908V190.124H283.537V182.319H284.167L284.797 174.513L286.686 173.212V171.912L287.945 170.611H289.204L291.723 168.009Z" fill="var(--icon-color)"/>
</svg>
