<svg width="824" height="852" viewBox="0 0 824 852" fill="none" xmlns="http://www.w3.org/2000/svg">
<path fill-rule="evenodd" clip-rule="evenodd" d="M384 149H406L407 152L411 153L413 155V157L418 162V167H419V217H418V222L414 225V227L411 230H409V232H407L405 234L391 235V234L383 233L373 223V219H372V214H371V170H372V164H373L374 159H376V157L378 156V154L384 152V149Z" fill="var(--icon-color)"/>
<path fill-rule="evenodd" clip-rule="evenodd" d="M205 225H214L216 227L222 228L259 265L260 275H261L260 285H259L258 290H256L255 294L250 296V298L245 299V300H240V301H233V300L225 299L216 290H214V288L212 286H210V284L203 277H201V275L199 273H197V271L191 266V264L188 263L187 257L185 255V244L187 242V239L193 231H195L197 228L203 227L205 225Z" fill="var(--icon-color)"/>
<path fill-rule="evenodd" clip-rule="evenodd" d="M577 225H585V226L594 228L602 236L603 241H604L605 246H606V253L604 255L603 262L566 299L557 300V301L542 299L539 295H537L535 293V291L531 287V281H530L531 267L535 263L536 259H538L540 257V255L543 254L545 252V250H547L549 248V246H551L553 244V242L556 241L558 239V237H560L562 235V233H564L568 228L575 227L577 225Z" fill="var(--icon-color)"/>
<path fill-rule="evenodd" clip-rule="evenodd" d="M388 351H403V352H405L410 357H412V359L414 360L415 365L417 366V371H418V461H417V466H416L413 474L410 475L407 479L401 480V481H389V480L383 479L377 473L376 468L373 465V367L376 364L378 358L381 355H383L384 353L388 352V351Z" fill="var(--icon-color)"/>
<path fill-rule="evenodd" clip-rule="evenodd" d="M137 411H175V412L187 413L190 417H192L194 419V421L198 425L200 438H199L197 448L188 457L182 458V459H175V460H137V459H130V458L124 457L121 453L118 452L117 448L114 447L113 427H114V424L117 423L118 419L121 418L124 414L130 413V412H137V411Z" fill="var(--icon-color)"/>
<path fill-rule="evenodd" clip-rule="evenodd" d="M616 411H653V412L665 413L667 416H669L673 420L674 424H677V447H674L673 451L670 454H668L666 457L660 458V459H654V460H615V459H608V458L602 457V455L599 454L596 451V449H594V447H593L592 439H591L592 427H593L594 422L598 419V417L602 416V414L608 413V412H616V411Z" fill="var(--icon-color)"/>
<path fill-rule="evenodd" clip-rule="evenodd" d="M387 496H403V497L408 498L410 501H412L414 503V505L417 506L419 514L421 515V527L419 528L417 536L414 537V539L411 542L407 543L404 546H387V545H384L382 542L378 541L377 538L373 535L372 529L369 525V517L372 513L373 507L377 504L378 501L382 500L384 497H387V496Z" fill="var(--icon-color)"/>
<path d="M403 269H413V270H416V271H423V272H432V273H435V274L440 275V276L449 277L452 280H456V281L461 282L464 285L470 286L472 289L478 290L481 294H484L486 297L492 299L493 302L497 303L498 306L502 307L507 313H509V315H511L515 319L516 322H518V324L524 329V331L532 339V341L536 345L538 351H540L541 356L545 360L546 366L550 371V376L554 381L555 391L558 395L559 410H560V417H561V423H562V476H561L560 540H559V581H560V583L573 584V585L579 586L580 588L586 590V592L590 593L598 601L599 605L603 608L604 614L607 617L608 633H609V652H608L607 670H606V673L604 675L603 682L599 686L598 690L594 693V695L590 697L589 700L585 701L584 704L579 705L574 709L561 710V712H549V713H241V712H229V710H222V709L214 708L213 706L207 704L204 700H202L196 694V692L193 691L192 687L188 683L187 676L184 672L183 655H182V649H181V636H182V630H183L184 616L187 613V610H188L189 606H191L192 602L201 593H203L206 589H209L212 586L217 585V584L230 583L231 579H232L231 521H230V500H229V420H230L231 407H232V397H233V394L235 393L236 383H237V380L240 377L241 370L244 367L245 362L248 359L250 352L253 350V348L257 344L258 340L266 332L268 327L284 311H286L290 306H292L294 303H296L299 299H301L305 295L311 293L313 290H316V289L320 288L323 285L329 284L331 281L339 280L342 277L351 276V275H354V274L359 273V272H368V271H375V270H378V269H387V268H403V269ZM375 620L297 621V622H283V623H277V624H264V625L230 626L229 629L225 633V652H226V655H227L229 665L231 667H234V668L484 669V668H557L562 664L563 657H564V654H565V649H566L565 631L560 626L527 625V624H514V623L494 622V621L375 619V620ZM378 314H374V315L367 316V317L357 318L354 321L347 322L344 325L339 326L336 329L330 331L328 334L324 335L321 339L317 340V342L314 343L307 350V352H305L303 354L302 357H300L299 361L296 362L294 368L290 371V374L287 376L286 381L282 386L281 393L278 396L276 411H275L274 418H273V516H274V540H275V558H276V577H277V579H294V578L318 577V576H366V575L473 576V577H489V578H497V579H514L516 532H517L518 423H517V415H516L515 409H514L513 398L510 394L509 387L506 384L504 377L501 375L500 370L496 367L495 363L491 360V358L487 355V353L484 352L483 349L480 348L478 346V344H476L472 339H470L468 336L462 334L461 331L456 330L454 327L449 326V325L445 324L444 322L436 321L433 318L423 317V316H420V315H417V314H412V313H378V314Z" fill="var(--icon-color)"/>
</svg>
